<svg xmlns="http://www.w3.org/2000/svg" xmlns:xlink="http://www.w3.org/1999/xlink" width="500" zoomAndPan="magnify" viewBox="0 0 375 374.999991" height="500" preserveAspectRatio="xMidYMid meet" version="1.0"><defs><g/><linearGradient x1="0.0000104167" gradientTransform="matrix(0.75, 0, 0, 0.75, 0.0000045, 0)" y1="499.99999" x2="499.99999" gradientUnits="userSpaceOnUse" y2="0.0000104167" id="7121564a8b"><stop stop-opacity="1" stop-color="rgb(97.648621%, 35.688782%, 96.469116%)" offset="0"/><stop stop-opacity="1" stop-color="rgb(97.648621%, 35.688782%, 96.469116%)" offset="0.125"/><stop stop-opacity="1" stop-color="rgb(97.648621%, 35.688782%, 96.469116%)" offset="0.140625"/><stop stop-opacity="1" stop-color="rgb(97.648621%, 35.688782%, 96.469116%)" offset="0.148437"/><stop stop-opacity="1" stop-color="rgb(97.067261%, 35.523987%, 96.479797%)" offset="0.152344"/><stop stop-opacity="1" stop-color="rgb(96.487427%, 35.359192%, 96.490479%)" offset="0.15625"/><stop stop-opacity="1" stop-color="rgb(95.759583%, 35.153198%, 96.502686%)" offset="0.160156"/><stop stop-opacity="1" stop-color="rgb(95.033264%, 34.94873%, 96.516418%)" offset="0.164062"/><stop stop-opacity="1" stop-color="rgb(94.306946%, 34.742737%, 96.528625%)" offset="0.167969"/><stop stop-opacity="1" stop-color="rgb(93.580627%, 34.536743%, 96.542358%)" offset="0.171875"/><stop stop-opacity="1" stop-color="rgb(92.854309%, 34.33075%, 96.556091%)" offset="0.175781"/><stop stop-opacity="1" stop-color="rgb(92.127991%, 34.124756%, 96.569824%)" offset="0.179687"/><stop stop-opacity="1" stop-color="rgb(91.400146%, 33.918762%, 96.582031%)" offset="0.183594"/><stop stop-opacity="1" stop-color="rgb(90.673828%, 33.712769%, 96.595764%)" offset="0.1875"/><stop stop-opacity="1" stop-color="rgb(89.94751%, 33.506775%, 96.607971%)" offset="0.191406"/><stop stop-opacity="1" stop-color="rgb(89.221191%, 33.302307%, 96.621704%)" offset="0.195312"/><stop stop-opacity="1" stop-color="rgb(88.494873%, 33.096313%, 96.633911%)" offset="0.199219"/><stop stop-opacity="1" stop-color="rgb(87.768555%, 32.89032%, 96.647644%)" offset="0.203125"/><stop stop-opacity="1" stop-color="rgb(87.04071%, 32.684326%, 96.661377%)" offset="0.207031"/><stop stop-opacity="1" stop-color="rgb(86.314392%, 32.478333%, 96.67511%)" offset="0.210938"/><stop stop-opacity="1" stop-color="rgb(85.588074%, 32.272339%, 96.687317%)" offset="0.214844"/><stop stop-opacity="1" stop-color="rgb(84.861755%, 32.066345%, 96.70105%)" offset="0.21875"/><stop stop-opacity="1" stop-color="rgb(84.135437%, 31.860352%, 96.713257%)" offset="0.222656"/><stop stop-opacity="1" stop-color="rgb(83.409119%, 31.655884%, 96.72699%)" offset="0.226562"/><stop stop-opacity="1" stop-color="rgb(82.681274%, 31.44989%, 96.740723%)" offset="0.230469"/><stop stop-opacity="1" stop-color="rgb(81.954956%, 31.243896%, 96.754456%)" offset="0.234375"/><stop stop-opacity="1" stop-color="rgb(81.228638%, 31.037903%, 96.766663%)" offset="0.238281"/><stop stop-opacity="1" stop-color="rgb(80.502319%, 30.831909%, 96.780396%)" offset="0.242188"/><stop stop-opacity="1" stop-color="rgb(79.776001%, 30.625916%, 96.792603%)" offset="0.246094"/><stop stop-opacity="1" stop-color="rgb(79.049683%, 30.419922%, 96.806335%)" offset="0.25"/><stop stop-opacity="1" stop-color="rgb(78.321838%, 30.213928%, 96.818542%)" offset="0.253906"/><stop stop-opacity="1" stop-color="rgb(77.59552%, 30.00946%, 96.832275%)" offset="0.257812"/><stop stop-opacity="1" stop-color="rgb(76.869202%, 29.803467%, 96.846008%)" offset="0.261719"/><stop stop-opacity="1" stop-color="rgb(76.142883%, 29.597473%, 96.859741%)" offset="0.265625"/><stop stop-opacity="1" stop-color="rgb(75.416565%, 29.391479%, 96.871948%)" offset="0.269531"/><stop stop-opacity="1" stop-color="rgb(74.690247%, 29.185486%, 96.885681%)" offset="0.273437"/><stop stop-opacity="1" stop-color="rgb(73.962402%, 28.979492%, 96.897888%)" offset="0.277344"/><stop stop-opacity="1" stop-color="rgb(73.236084%, 28.773499%, 96.911621%)" offset="0.28125"/><stop stop-opacity="1" stop-color="rgb(72.509766%, 28.567505%, 96.923828%)" offset="0.285156"/><stop stop-opacity="1" stop-color="rgb(71.783447%, 28.363037%, 96.937561%)" offset="0.289062"/><stop stop-opacity="1" stop-color="rgb(71.057129%, 28.157043%, 96.951294%)" offset="0.292969"/><stop stop-opacity="1" stop-color="rgb(70.330811%, 27.95105%, 96.965027%)" offset="0.296875"/><stop stop-opacity="1" stop-color="rgb(69.602966%, 27.745056%, 96.977234%)" offset="0.300781"/><stop stop-opacity="1" stop-color="rgb(68.876648%, 27.539062%, 96.990967%)" offset="0.304687"/><stop stop-opacity="1" stop-color="rgb(68.15033%, 27.333069%, 97.003174%)" offset="0.308594"/><stop stop-opacity="1" stop-color="rgb(67.424011%, 27.127075%, 97.016907%)" offset="0.3125"/><stop stop-opacity="1" stop-color="rgb(66.697693%, 26.921082%, 97.029114%)" offset="0.316406"/><stop stop-opacity="1" stop-color="rgb(65.971375%, 26.716614%, 97.042847%)" offset="0.320312"/><stop stop-opacity="1" stop-color="rgb(65.245056%, 26.51062%, 97.05658%)" offset="0.324219"/><stop stop-opacity="1" stop-color="rgb(64.518738%, 26.304626%, 97.070312%)" offset="0.328125"/><stop stop-opacity="1" stop-color="rgb(63.790894%, 26.098633%, 97.08252%)" offset="0.332031"/><stop stop-opacity="1" stop-color="rgb(63.064575%, 25.892639%, 97.096252%)" offset="0.335937"/><stop stop-opacity="1" stop-color="rgb(62.338257%, 25.686646%, 97.108459%)" offset="0.339844"/><stop stop-opacity="1" stop-color="rgb(61.611938%, 25.480652%, 97.122192%)" offset="0.34375"/><stop stop-opacity="1" stop-color="rgb(60.88562%, 25.274658%, 97.134399%)" offset="0.347656"/><stop stop-opacity="1" stop-color="rgb(60.159302%, 25.07019%, 97.148132%)" offset="0.351562"/><stop stop-opacity="1" stop-color="rgb(59.431458%, 24.864197%, 97.161865%)" offset="0.355469"/><stop stop-opacity="1" stop-color="rgb(58.705139%, 24.658203%, 97.175598%)" offset="0.359375"/><stop stop-opacity="1" stop-color="rgb(57.978821%, 24.452209%, 97.187805%)" offset="0.363281"/><stop stop-opacity="1" stop-color="rgb(57.252502%, 24.246216%, 97.201538%)" offset="0.367187"/><stop stop-opacity="1" stop-color="rgb(56.526184%, 24.040222%, 97.213745%)" offset="0.371094"/><stop stop-opacity="1" stop-color="rgb(55.799866%, 23.834229%, 97.227478%)" offset="0.375"/><stop stop-opacity="1" stop-color="rgb(55.072021%, 23.628235%, 97.239685%)" offset="0.378906"/><stop stop-opacity="1" stop-color="rgb(54.345703%, 23.423767%, 97.253418%)" offset="0.382812"/><stop stop-opacity="1" stop-color="rgb(53.619385%, 23.217773%, 97.267151%)" offset="0.386719"/><stop stop-opacity="1" stop-color="rgb(52.893066%, 23.01178%, 97.280884%)" offset="0.390625"/><stop stop-opacity="1" stop-color="rgb(52.166748%, 22.805786%, 97.293091%)" offset="0.394531"/><stop stop-opacity="1" stop-color="rgb(51.44043%, 22.599792%, 97.306824%)" offset="0.398438"/><stop stop-opacity="1" stop-color="rgb(50.712585%, 22.393799%, 97.319031%)" offset="0.402344"/><stop stop-opacity="1" stop-color="rgb(49.986267%, 22.187805%, 97.332764%)" offset="0.40625"/><stop stop-opacity="1" stop-color="rgb(49.259949%, 21.981812%, 97.346497%)" offset="0.410156"/><stop stop-opacity="1" stop-color="rgb(48.53363%, 21.777344%, 97.360229%)" offset="0.414062"/><stop stop-opacity="1" stop-color="rgb(47.807312%, 21.57135%, 97.372437%)" offset="0.417969"/><stop stop-opacity="1" stop-color="rgb(47.080994%, 21.365356%, 97.386169%)" offset="0.421875"/><stop stop-opacity="1" stop-color="rgb(46.353149%, 21.159363%, 97.398376%)" offset="0.425781"/><stop stop-opacity="1" stop-color="rgb(45.626831%, 20.953369%, 97.412109%)" offset="0.429688"/><stop stop-opacity="1" stop-color="rgb(44.900513%, 20.747375%, 97.424316%)" offset="0.433594"/><stop stop-opacity="1" stop-color="rgb(44.174194%, 20.541382%, 97.438049%)" offset="0.4375"/><stop stop-opacity="1" stop-color="rgb(43.447876%, 20.335388%, 97.451782%)" offset="0.441406"/><stop stop-opacity="1" stop-color="rgb(42.721558%, 20.13092%, 97.465515%)" offset="0.445312"/><stop stop-opacity="1" stop-color="rgb(41.993713%, 19.924927%, 97.477722%)" offset="0.449219"/><stop stop-opacity="1" stop-color="rgb(41.267395%, 19.718933%, 97.491455%)" offset="0.453125"/><stop stop-opacity="1" stop-color="rgb(40.541077%, 19.512939%, 97.503662%)" offset="0.457031"/><stop stop-opacity="1" stop-color="rgb(39.814758%, 19.306946%, 97.517395%)" offset="0.460938"/><stop stop-opacity="1" stop-color="rgb(39.08844%, 19.100952%, 97.529602%)" offset="0.464844"/><stop stop-opacity="1" stop-color="rgb(38.362122%, 18.894958%, 97.543335%)" offset="0.46875"/><stop stop-opacity="1" stop-color="rgb(37.634277%, 18.688965%, 97.557068%)" offset="0.472656"/><stop stop-opacity="1" stop-color="rgb(36.907959%, 18.484497%, 97.570801%)" offset="0.476562"/><stop stop-opacity="1" stop-color="rgb(36.181641%, 18.278503%, 97.583008%)" offset="0.480469"/><stop stop-opacity="1" stop-color="rgb(35.455322%, 18.07251%, 97.596741%)" offset="0.484375"/><stop stop-opacity="1" stop-color="rgb(34.729004%, 17.866516%, 97.608948%)" offset="0.488281"/><stop stop-opacity="1" stop-color="rgb(34.002686%, 17.660522%, 97.622681%)" offset="0.492188"/><stop stop-opacity="1" stop-color="rgb(33.274841%, 17.454529%, 97.634888%)" offset="0.496094"/><stop stop-opacity="1" stop-color="rgb(32.548523%, 17.248535%, 97.648621%)" offset="0.5"/><stop stop-opacity="1" stop-color="rgb(32.199097%, 18.136597%, 97.587585%)" offset="0.503906"/><stop stop-opacity="1" stop-color="rgb(31.84967%, 19.026184%, 97.52655%)" offset="0.507812"/><stop stop-opacity="1" stop-color="rgb(31.498718%, 19.914246%, 97.465515%)" offset="0.511719"/><stop stop-opacity="1" stop-color="rgb(31.149292%, 20.803833%, 97.40448%)" offset="0.515625"/><stop stop-opacity="1" stop-color="rgb(30.79834%, 21.691895%, 97.341919%)" offset="0.519531"/><stop stop-opacity="1" stop-color="rgb(30.448914%, 22.579956%, 97.280884%)" offset="0.523438"/><stop stop-opacity="1" stop-color="rgb(30.097961%, 23.468018%, 97.219849%)" offset="0.527344"/><stop stop-opacity="1" stop-color="rgb(29.748535%, 24.357605%, 97.158813%)" offset="0.53125"/><stop stop-opacity="1" stop-color="rgb(29.397583%, 25.245667%, 97.097778%)" offset="0.535156"/><stop stop-opacity="1" stop-color="rgb(29.048157%, 26.133728%, 97.036743%)" offset="0.539062"/><stop stop-opacity="1" stop-color="rgb(28.697205%, 27.02179%, 96.975708%)" offset="0.542969"/><stop stop-opacity="1" stop-color="rgb(28.347778%, 27.911377%, 96.914673%)" offset="0.546875"/><stop stop-opacity="1" stop-color="rgb(27.996826%, 28.799438%, 96.852112%)" offset="0.550781"/><stop stop-opacity="1" stop-color="rgb(27.6474%, 29.689026%, 96.791077%)" offset="0.554688"/><stop stop-opacity="1" stop-color="rgb(27.296448%, 30.577087%, 96.730042%)" offset="0.558594"/><stop stop-opacity="1" stop-color="rgb(26.947021%, 31.465149%, 96.669006%)" offset="0.5625"/><stop stop-opacity="1" stop-color="rgb(26.596069%, 32.35321%, 96.607971%)" offset="0.566406"/><stop stop-opacity="1" stop-color="rgb(26.246643%, 33.242798%, 96.546936%)" offset="0.570312"/><stop stop-opacity="1" stop-color="rgb(25.895691%, 34.130859%, 96.484375%)" offset="0.574219"/><stop stop-opacity="1" stop-color="rgb(25.546265%, 35.018921%, 96.42334%)" offset="0.578125"/><stop stop-opacity="1" stop-color="rgb(25.196838%, 35.906982%, 96.362305%)" offset="0.582031"/><stop stop-opacity="1" stop-color="rgb(24.847412%, 36.79657%, 96.30127%)" offset="0.585938"/><stop stop-opacity="1" stop-color="rgb(24.49646%, 37.684631%, 96.240234%)" offset="0.589844"/><stop stop-opacity="1" stop-color="rgb(24.147034%, 38.572693%, 96.179199%)" offset="0.59375"/><stop stop-opacity="1" stop-color="rgb(23.796082%, 39.460754%, 96.116638%)" offset="0.597656"/><stop stop-opacity="1" stop-color="rgb(23.446655%, 40.350342%, 96.055603%)" offset="0.601562"/><stop stop-opacity="1" stop-color="rgb(23.095703%, 41.238403%, 95.994568%)" offset="0.605469"/><stop stop-opacity="1" stop-color="rgb(22.746277%, 42.127991%, 95.933533%)" offset="0.609375"/><stop stop-opacity="1" stop-color="rgb(22.395325%, 43.016052%, 95.872498%)" offset="0.613281"/><stop stop-opacity="1" stop-color="rgb(22.045898%, 43.904114%, 95.811462%)" offset="0.617188"/><stop stop-opacity="1" stop-color="rgb(21.694946%, 44.792175%, 95.748901%)" offset="0.621094"/><stop stop-opacity="1" stop-color="rgb(21.34552%, 45.681763%, 95.687866%)" offset="0.625"/><stop stop-opacity="1" stop-color="rgb(20.994568%, 46.569824%, 95.626831%)" offset="0.628906"/><stop stop-opacity="1" stop-color="rgb(20.645142%, 47.457886%, 95.565796%)" offset="0.632812"/><stop stop-opacity="1" stop-color="rgb(20.294189%, 48.345947%, 95.504761%)" offset="0.636719"/><stop stop-opacity="1" stop-color="rgb(19.944763%, 49.235535%, 95.443726%)" offset="0.640625"/><stop stop-opacity="1" stop-color="rgb(19.593811%, 50.123596%, 95.381165%)" offset="0.644531"/><stop stop-opacity="1" stop-color="rgb(19.244385%, 51.011658%, 95.320129%)" offset="0.648438"/><stop stop-opacity="1" stop-color="rgb(18.894958%, 51.899719%, 95.259094%)" offset="0.652344"/><stop stop-opacity="1" stop-color="rgb(18.545532%, 52.789307%, 95.198059%)" offset="0.65625"/><stop stop-opacity="1" stop-color="rgb(18.19458%, 53.677368%, 95.137024%)" offset="0.660156"/><stop stop-opacity="1" stop-color="rgb(17.845154%, 54.566956%, 95.075989%)" offset="0.664062"/><stop stop-opacity="1" stop-color="rgb(17.494202%, 55.455017%, 95.014954%)" offset="0.667969"/><stop stop-opacity="1" stop-color="rgb(17.144775%, 56.343079%, 94.953918%)" offset="0.671875"/><stop stop-opacity="1" stop-color="rgb(16.793823%, 57.23114%, 94.891357%)" offset="0.675781"/><stop stop-opacity="1" stop-color="rgb(16.444397%, 58.120728%, 94.830322%)" offset="0.679688"/><stop stop-opacity="1" stop-color="rgb(16.093445%, 59.008789%, 94.769287%)" offset="0.683594"/><stop stop-opacity="1" stop-color="rgb(15.744019%, 59.896851%, 94.708252%)" offset="0.6875"/><stop stop-opacity="1" stop-color="rgb(15.393066%, 60.784912%, 94.647217%)" offset="0.691406"/><stop stop-opacity="1" stop-color="rgb(15.04364%, 61.6745%, 94.586182%)" offset="0.695312"/><stop stop-opacity="1" stop-color="rgb(14.692688%, 62.562561%, 94.523621%)" offset="0.699219"/><stop stop-opacity="1" stop-color="rgb(14.343262%, 63.452148%, 94.462585%)" offset="0.703125"/><stop stop-opacity="1" stop-color="rgb(13.99231%, 64.34021%, 94.40155%)" offset="0.707031"/><stop stop-opacity="1" stop-color="rgb(13.642883%, 65.228271%, 94.340515%)" offset="0.710938"/><stop stop-opacity="1" stop-color="rgb(13.291931%, 66.116333%, 94.27948%)" offset="0.714844"/><stop stop-opacity="1" stop-color="rgb(12.942505%, 67.00592%, 94.218445%)" offset="0.71875"/><stop stop-opacity="1" stop-color="rgb(12.591553%, 67.893982%, 94.155884%)" offset="0.722656"/><stop stop-opacity="1" stop-color="rgb(12.242126%, 68.782043%, 94.094849%)" offset="0.726562"/><stop stop-opacity="1" stop-color="rgb(11.8927%, 69.670105%, 94.033813%)" offset="0.730469"/><stop stop-opacity="1" stop-color="rgb(11.543274%, 70.559692%, 93.972778%)" offset="0.734375"/><stop stop-opacity="1" stop-color="rgb(11.192322%, 71.447754%, 93.911743%)" offset="0.738281"/><stop stop-opacity="1" stop-color="rgb(10.842896%, 72.335815%, 93.850708%)" offset="0.742188"/><stop stop-opacity="1" stop-color="rgb(10.491943%, 73.223877%, 93.788147%)" offset="0.746094"/><stop stop-opacity="1" stop-color="rgb(10.142517%, 74.113464%, 93.727112%)" offset="0.75"/><stop stop-opacity="1" stop-color="rgb(9.791565%, 75.001526%, 93.666077%)" offset="0.753906"/><stop stop-opacity="1" stop-color="rgb(9.442139%, 75.891113%, 93.605042%)" offset="0.757813"/><stop stop-opacity="1" stop-color="rgb(9.091187%, 76.779175%, 93.544006%)" offset="0.761719"/><stop stop-opacity="1" stop-color="rgb(8.74176%, 77.667236%, 93.482971%)" offset="0.765625"/><stop stop-opacity="1" stop-color="rgb(8.390808%, 78.555298%, 93.421936%)" offset="0.769531"/><stop stop-opacity="1" stop-color="rgb(8.041382%, 79.444885%, 93.360901%)" offset="0.773438"/><stop stop-opacity="1" stop-color="rgb(7.69043%, 80.332947%, 93.29834%)" offset="0.777344"/><stop stop-opacity="1" stop-color="rgb(7.341003%, 81.221008%, 93.237305%)" offset="0.78125"/><stop stop-opacity="1" stop-color="rgb(6.990051%, 82.10907%, 93.17627%)" offset="0.785156"/><stop stop-opacity="1" stop-color="rgb(6.640625%, 82.998657%, 93.115234%)" offset="0.789063"/><stop stop-opacity="1" stop-color="rgb(6.289673%, 83.886719%, 93.054199%)" offset="0.792969"/><stop stop-opacity="1" stop-color="rgb(5.940247%, 84.776306%, 92.993164%)" offset="0.796875"/><stop stop-opacity="1" stop-color="rgb(5.589294%, 85.664368%, 92.930603%)" offset="0.800781"/><stop stop-opacity="1" stop-color="rgb(5.239868%, 86.552429%, 92.869568%)" offset="0.804688"/><stop stop-opacity="1" stop-color="rgb(4.890442%, 87.440491%, 92.808533%)" offset="0.808594"/><stop stop-opacity="1" stop-color="rgb(4.541016%, 88.330078%, 92.747498%)" offset="0.8125"/><stop stop-opacity="1" stop-color="rgb(4.190063%, 89.21814%, 92.686462%)" offset="0.816406"/><stop stop-opacity="1" stop-color="rgb(3.840637%, 90.106201%, 92.625427%)" offset="0.820313"/><stop stop-opacity="1" stop-color="rgb(3.489685%, 90.994263%, 92.562866%)" offset="0.824219"/><stop stop-opacity="1" stop-color="rgb(3.140259%, 91.88385%, 92.501831%)" offset="0.828125"/><stop stop-opacity="1" stop-color="rgb(2.789307%, 92.771912%, 92.440796%)" offset="0.832031"/><stop stop-opacity="1" stop-color="rgb(2.43988%, 93.659973%, 92.379761%)" offset="0.835938"/><stop stop-opacity="1" stop-color="rgb(2.088928%, 94.548035%, 92.318726%)" offset="0.839844"/><stop stop-opacity="1" stop-color="rgb(1.739502%, 95.437622%, 92.25769%)" offset="0.84375"/><stop stop-opacity="1" stop-color="rgb(1.45874%, 96.148682%, 92.207336%)" offset="0.847656"/><stop stop-opacity="1" stop-color="rgb(1.179504%, 96.859741%, 92.158508%)" offset="0.851563"/><stop stop-opacity="1" stop-color="rgb(1.179504%, 96.859741%, 92.158508%)" offset="0.859375"/><stop stop-opacity="1" stop-color="rgb(1.179504%, 96.859741%, 92.158508%)" offset="0.875"/><stop stop-opacity="1" stop-color="rgb(1.179504%, 96.859741%, 92.158508%)" offset="1"/></linearGradient><clipPath id="b833b734c8"><path d="M 127 116 L 279.804688 116 L 279.804688 270 L 127 270 Z M 127 116 " clip-rule="nonzero"/></clipPath><clipPath id="17a365dde8"><path d="M 118 107.507812 L 220 107.507812 L 220 279.257812 L 118 279.257812 Z M 118 107.507812 " clip-rule="nonzero"/></clipPath><clipPath id="b8438159d2"><path d="M 115 111 L 191 111 L 191 279.257812 L 115 279.257812 Z M 115 111 " clip-rule="nonzero"/></clipPath><clipPath id="811700c1e9"><path d="M 113.304688 117 L 163 117 L 163 273 L 113.304688 273 Z M 113.304688 117 " clip-rule="nonzero"/></clipPath></defs><rect x="-37.5" width="450" fill="#ffffff" y="-37.499999" height="449.999989" fill-opacity="1"/><rect x="-37.5" fill="url(#7121564a8b)" width="450" y="-37.499999" height="449.999989"/><g fill="#ffffff" fill-opacity="1"><g transform="translate(146.517833, 226.124985)"><g><path d="M 5.890625 -73.296875 L 5.78125 -5.0625 L 5.78125 -3.765625 C 5.78125 -3.453125 5.695312 -3.097656 5.53125 -2.703125 C 5.53125 -1.679688 5.296875 -1.171875 4.828125 -1.171875 L 4.71875 -1.171875 L 4.71875 0 L 18.96875 0 L 18.96875 -1.171875 L 18.734375 -1.171875 C 18.421875 -1.171875 18.164062 -1.382812 17.96875 -1.8125 C 17.769531 -2.25 17.613281 -2.765625 17.5 -3.359375 C 17.382812 -3.953125 17.328125 -4.484375 17.328125 -4.953125 L 17.328125 -39.484375 L 37.359375 -39.484375 C 37.828125 -39.484375 38.257812 -39.398438 38.65625 -39.234375 C 40.457031 -39.078125 41.554688 -38.804688 41.953125 -38.421875 L 42.3125 -38.296875 L 43.25 -38.296875 L 43.25 -43.359375 L 42.3125 -43.359375 C 41.675781 -43.203125 41.164062 -43.046875 40.78125 -42.890625 L 40.421875 -42.890625 C 40.335938 -42.816406 40.179688 -42.78125 39.953125 -42.78125 L 39.359375 -42.78125 C 39.203125 -42.78125 39.003906 -42.738281 38.765625 -42.65625 C 38.222656 -42.65625 37.753906 -42.617188 37.359375 -42.546875 L 36.53125 -42.546875 C 36.289062 -42.546875 35.976562 -42.503906 35.59375 -42.421875 L 34.640625 -42.421875 C 34.253906 -42.421875 33.820312 -42.382812 33.34375 -42.3125 L 17.328125 -42.3125 L 17.328125 -74.828125 L 44.546875 -74.828125 C 44.941406 -74.828125 45.332031 -74.789062 45.71875 -74.71875 L 47.96875 -74.71875 C 48.832031 -74.71875 49.457031 -74.640625 49.84375 -74.484375 C 50.789062 -74.484375 51.773438 -74.285156 52.796875 -73.890625 L 53.859375 -73.53125 C 54.171875 -73.53125 54.523438 -73.375 54.921875 -73.0625 L 55.859375 -73.0625 L 55.859375 -77.78125 L 4.71875 -77.78125 L 4.71875 -76.59375 L 4.828125 -76.59375 C 5.378906 -76.59375 5.65625 -76.046875 5.65625 -74.953125 C 5.8125 -74.640625 5.890625 -74.242188 5.890625 -73.765625 Z M 5.890625 -73.296875 "/></g></g></g><g fill="#ffffff" fill-opacity="1"><g transform="translate(189.341988, 226.124985)"><g><path d="M 21.453125 -7.421875 C 21.453125 -5.304688 21.039062 -3.734375 20.21875 -2.703125 C 19.394531 -1.679688 17.960938 -1.171875 15.921875 -1.171875 C 14.109375 -1.171875 12.734375 -1.523438 11.796875 -2.234375 C 11.003906 -3.023438 10.375 -4.242188 9.90625 -5.890625 C 9.664062 -7.703125 9.078125 -8.921875 8.140625 -9.546875 C 7.585938 -10.171875 6.367188 -10.484375 4.484375 -10.484375 C 3.378906 -10.484375 2.316406 -10.363281 1.296875 -10.125 C 0.273438 -9.894531 -0.234375 -9.113281 -0.234375 -7.78125 C -0.234375 -6.445312 0.15625 -5.070312 0.9375 -3.65625 C 1.726562 -2.238281 2.710938 -1.140625 3.890625 -0.359375 C 4.992188 0.117188 6.332031 0.492188 7.90625 0.765625 C 9.476562 1.035156 11.519531 1.171875 14.03125 1.171875 C 18.820312 1.171875 22.53125 0.625 25.15625 -0.46875 C 27.789062 -1.570312 29.738281 -3.144531 31 -5.1875 C 32.257812 -7.226562 33.003906 -9.722656 33.234375 -12.671875 C 33.472656 -15.617188 33.59375 -18.976562 33.59375 -22.75 L 33.59375 -70.234375 C 33.59375 -70.628906 33.628906 -71.019531 33.703125 -71.40625 L 33.703125 -75.0625 C 33.785156 -76.082031 34.023438 -76.59375 34.421875 -76.59375 L 34.53125 -76.59375 C 34.613281 -76.59375 34.65625 -76.632812 34.65625 -76.71875 C 34.8125 -76.875 34.769531 -77.03125 34.53125 -77.1875 C 34.613281 -77.34375 34.65625 -77.5 34.65625 -77.65625 C 34.65625 -77.738281 34.613281 -77.78125 34.53125 -77.78125 L 20.984375 -77.78125 L 20.984375 -76.59375 L 21.09375 -76.59375 C 21.570312 -76.59375 21.8125 -76.046875 21.8125 -74.953125 C 21.96875 -74.640625 22.046875 -74.242188 22.046875 -73.765625 L 22.046875 -73.296875 L 21.921875 -16.609375 L 21.921875 -13.78125 C 21.921875 -13 21.84375 -12.175781 21.6875 -11.3125 C 21.6875 -10.601562 21.664062 -9.929688 21.625 -9.296875 C 21.59375 -8.671875 21.535156 -8.046875 21.453125 -7.421875 Z M 21.453125 -7.421875 "/></g></g></g><g fill="#ffffff" fill-opacity="1"><g transform="translate(174.420096, 244.09315)"><g><path d="M 1.75 1 L 1.703125 0.96875 C 1.640625 0.925781 1.644531 0.832031 1.71875 0.6875 C 1.738281 0.644531 1.765625 0.597656 1.796875 0.546875 C 1.796875 0.492188 1.816406 0.441406 1.859375 0.390625 L 4.703125 -3.734375 L 6.875 -2.234375 L 7.09375 -2.078125 C 7.164062 -2.035156 7.21875 -1.988281 7.25 -1.9375 C 7.445312 -1.789062 7.550781 -1.660156 7.5625 -1.546875 L 7.671875 -1.484375 L 7.984375 -1.921875 L 7.875 -1.984375 C 7.789062 -1.984375 7.660156 -2.03125 7.484375 -2.125 C 7.429688 -2.164062 7.382812 -2.195312 7.34375 -2.21875 C 7.28125 -2.25 7.210938 -2.285156 7.140625 -2.328125 L 4.84375 -3.921875 L 7.640625 -7.96875 L 10.609375 -5.921875 L 10.796875 -5.796875 C 10.835938 -5.765625 10.882812 -5.726562 10.9375 -5.6875 L 11.203125 -5.5 C 11.304688 -5.425781 11.363281 -5.367188 11.375 -5.328125 C 11.488281 -5.242188 11.585938 -5.144531 11.671875 -5.03125 C 11.710938 -5 11.742188 -4.945312 11.765625 -4.875 C 11.796875 -4.863281 11.820312 -4.84375 11.84375 -4.8125 C 11.851562 -4.789062 11.863281 -4.769531 11.875 -4.75 L 11.984375 -4.671875 L 12.265625 -5.0625 L 6.890625 -8.78125 L 6.796875 -8.65625 L 6.8125 -8.640625 C 6.882812 -8.585938 6.878906 -8.5 6.796875 -8.375 C 6.773438 -8.3125 6.71875 -8.21875 6.625 -8.09375 L 1.09375 -0.125 L 1 0 C 0.96875 0.0507812 0.925781 0.09375 0.875 0.125 C 0.789062 0.25 0.71875 0.289062 0.65625 0.25 L 0.640625 0.234375 L 0.546875 0.375 L 1.65625 1.140625 Z M 1.75 1 "/></g></g></g><g fill="#ffffff" fill-opacity="1"><g transform="translate(182.546233, 249.291549)"><g><path d="M 0.890625 0.015625 C 0.828125 0.140625 0.757812 0.179688 0.6875 0.140625 L 0.609375 0.296875 L 1.703125 0.84375 L 1.78125 0.6875 L 1.78125 0.671875 C 1.738281 0.660156 1.734375 0.578125 1.765625 0.421875 C 1.796875 0.367188 1.820312 0.316406 1.84375 0.265625 C 1.84375 0.222656 1.859375 0.171875 1.890625 0.109375 L 5.921875 -8.078125 C 5.984375 -8.191406 6.046875 -8.289062 6.109375 -8.375 C 6.148438 -8.457031 6.179688 -8.523438 6.203125 -8.578125 C 6.253906 -8.640625 6.289062 -8.695312 6.3125 -8.75 L 6.375 -8.859375 C 6.46875 -8.984375 6.53125 -9.039062 6.5625 -9.03125 L 6.5625 -9.015625 L 6.625 -9.15625 L 5.53125 -9.703125 L 5.46875 -9.5625 C 5.550781 -9.519531 5.554688 -9.425781 5.484375 -9.28125 C 5.484375 -9.21875 5.441406 -9.117188 5.359375 -8.984375 L 1.0625 -0.28125 L 1 -0.140625 C 0.96875 -0.0859375 0.929688 -0.0351562 0.890625 0.015625 Z M 0.890625 0.015625 "/></g></g></g><g fill="#ffffff" fill-opacity="1"><g transform="translate(187.109142, 251.633497)"><g><path d="M 8.359375 2.4375 C 8.390625 2.40625 8.410156 2.367188 8.421875 2.328125 C 8.460938 2.253906 8.492188 2.191406 8.515625 2.140625 C 8.523438 2.109375 8.535156 2.078125 8.546875 2.046875 C 8.546875 2.015625 8.5625 1.984375 8.59375 1.953125 L 8.5625 1.9375 C 8.539062 1.914062 8.492188 1.894531 8.421875 1.875 L 8.390625 1.875 C 8.316406 1.914062 8.242188 1.9375 8.171875 1.9375 C 8.085938 1.945312 8 1.953125 7.90625 1.953125 L 7.828125 1.9375 C 7.785156 1.914062 7.738281 1.914062 7.6875 1.9375 C 7.65625 1.925781 7.625 1.914062 7.59375 1.90625 C 7.539062 1.90625 7.488281 1.90625 7.4375 1.90625 L 7.3125 1.859375 C 7.269531 1.847656 7.210938 1.835938 7.140625 1.828125 L 6.984375 1.78125 C 6.929688 1.769531 6.875 1.757812 6.8125 1.75 L 2.078125 0.375 L 11.703125 -8.1875 L 5.0625 -10.125 L 5.046875 -10.109375 C 5.046875 -10.097656 5.023438 -10.078125 4.984375 -10.046875 C 4.972656 -10.003906 4.941406 -9.953125 4.890625 -9.890625 L 4.859375 -9.8125 C 4.847656 -9.78125 4.828125 -9.75 4.796875 -9.71875 L 4.9375 -9.6875 C 4.976562 -9.695312 5.015625 -9.703125 5.046875 -9.703125 C 5.066406 -9.691406 5.097656 -9.6875 5.140625 -9.6875 C 5.171875 -9.695312 5.203125 -9.703125 5.234375 -9.703125 C 5.253906 -9.691406 5.28125 -9.6875 5.3125 -9.6875 C 5.382812 -9.695312 5.441406 -9.695312 5.484375 -9.6875 C 5.585938 -9.6875 5.660156 -9.675781 5.703125 -9.65625 C 5.773438 -9.664062 5.863281 -9.65625 5.96875 -9.625 L 6.234375 -9.546875 C 6.253906 -9.546875 6.304688 -9.535156 6.390625 -9.515625 C 6.453125 -9.492188 6.5 -9.472656 6.53125 -9.453125 L 10.46875 -8.3125 L 0.84375 0.25 Z M 8.359375 2.4375 "/></g></g></g><g fill="#ffffff" fill-opacity="1"><g transform="translate(199.265551, 254.797058)"><g><path d="M 8.703125 0.28125 C 8.722656 0.238281 8.734375 0.195312 8.734375 0.15625 C 8.765625 0.0703125 8.78125 0.00390625 8.78125 -0.046875 C 8.789062 -0.078125 8.796875 -0.109375 8.796875 -0.140625 C 8.796875 -0.171875 8.800781 -0.207031 8.8125 -0.25 L 8.765625 -0.25 C 8.742188 -0.257812 8.695312 -0.269531 8.625 -0.28125 L 8.59375 -0.28125 C 8.539062 -0.21875 8.472656 -0.175781 8.390625 -0.15625 C 8.316406 -0.125 8.238281 -0.101562 8.15625 -0.09375 L 8.078125 -0.09375 C 8.035156 -0.09375 7.988281 -0.078125 7.9375 -0.046875 C 7.90625 -0.046875 7.875 -0.046875 7.84375 -0.046875 C 7.789062 -0.0351562 7.738281 -0.03125 7.6875 -0.03125 L 7.546875 -0.03125 C 7.503906 -0.03125 7.453125 -0.0234375 7.390625 -0.015625 L 7.234375 -0.015625 C 7.171875 -0.0234375 7.101562 -0.0234375 7.03125 -0.015625 L 2.09375 -0.171875 L 9.28125 -10.859375 L 2.359375 -11.078125 L 2.359375 -11.046875 C 2.359375 -11.035156 2.34375 -11.007812 2.3125 -10.96875 C 2.3125 -10.925781 2.296875 -10.867188 2.265625 -10.796875 L 2.265625 -10.71875 C 2.265625 -10.675781 2.25 -10.640625 2.21875 -10.609375 L 2.359375 -10.609375 C 2.398438 -10.628906 2.4375 -10.644531 2.46875 -10.65625 C 2.5 -10.65625 2.53125 -10.664062 2.5625 -10.6875 C 2.59375 -10.695312 2.625 -10.703125 2.65625 -10.703125 C 2.675781 -10.703125 2.695312 -10.707031 2.71875 -10.71875 C 2.789062 -10.75 2.851562 -10.765625 2.90625 -10.765625 C 3 -10.785156 3.066406 -10.789062 3.109375 -10.78125 C 3.171875 -10.800781 3.257812 -10.8125 3.375 -10.8125 L 3.640625 -10.796875 C 3.671875 -10.804688 3.726562 -10.8125 3.8125 -10.8125 C 3.875 -10.8125 3.921875 -10.804688 3.953125 -10.796875 L 8.0625 -10.65625 L 0.875 0.03125 Z M 8.703125 0.28125 "/></g></g></g><g fill="#ffffff" fill-opacity="1"><g transform="translate(211.784608, 254.794572)"><g><path d="M 0.78125 -0.171875 L 0.75 -0.34375 L 0.71875 -0.328125 C 0.675781 -0.328125 0.65625 -0.414062 0.65625 -0.59375 C 0.664062 -0.707031 0.675781 -0.859375 0.6875 -1.046875 C 0.707031 -1.210938 0.71875 -1.4375 0.71875 -1.71875 L 1.015625 -4.296875 L 5.171875 -5.1875 L 6.703125 -2.75 C 6.953125 -2.363281 7.113281 -2.097656 7.1875 -1.953125 C 7.269531 -1.828125 7.289062 -1.757812 7.25 -1.75 L 7.234375 -1.75 L 7.265625 -1.578125 L 8.515625 -1.84375 L 8.484375 -2.015625 L 8.46875 -2.015625 C 8.4375 -2.003906 8.378906 -2.035156 8.296875 -2.109375 C 8.273438 -2.148438 8.226562 -2.222656 8.15625 -2.328125 C 8.0625 -2.410156 8.003906 -2.472656 7.984375 -2.515625 L 1.859375 -12.0625 L 1.625 -12.015625 L 0.40625 -1.375 C 0.394531 -1.269531 0.390625 -1.175781 0.390625 -1.09375 C 0.378906 -1 0.359375 -0.90625 0.328125 -0.8125 C 0.328125 -0.738281 0.316406 -0.679688 0.296875 -0.640625 C 0.296875 -0.578125 0.289062 -0.515625 0.28125 -0.453125 C 0.25 -0.304688 0.210938 -0.226562 0.171875 -0.21875 L 0.15625 -0.21875 L 0.1875 -0.046875 Z M 1.71875 -10.75 L 5.03125 -5.421875 L 1.0625 -4.5625 Z M 1.71875 -10.75 "/></g></g></g><g fill="#ffffff" fill-opacity="1"><g transform="translate(222.941552, 251.910291)"><g/></g></g><g fill="#ffffff" fill-opacity="1"><g transform="translate(228.977095, 249.221085)"><g><path d="M -2.9375 -11.046875 L -2.90625 -11.0625 C -2.84375 -11.09375 -2.773438 -11.039062 -2.703125 -10.90625 C -2.628906 -10.875 -2.566406 -10.785156 -2.515625 -10.640625 L 1.640625 -3.703125 L 1.859375 -3.34375 C 1.921875 -3.226562 1.976562 -3.113281 2.03125 -3 C 2.082031 -2.90625 2.140625 -2.789062 2.203125 -2.65625 C 2.265625 -2.507812 2.316406 -2.367188 2.359375 -2.234375 C 2.398438 -2.085938 2.410156 -1.953125 2.390625 -1.828125 C 2.367188 -1.679688 2.316406 -1.550781 2.234375 -1.4375 C 2.148438 -1.363281 2.054688 -1.296875 1.953125 -1.234375 C 1.847656 -1.140625 1.722656 -1.050781 1.578125 -0.96875 C 1.359375 -0.832031 1.125 -0.753906 0.875 -0.734375 C 0.71875 -0.765625 0.507812 -0.894531 0.25 -1.125 C 0.132812 -1.257812 0.0351562 -1.320312 -0.046875 -1.3125 C -0.0976562 -1.332031 -0.148438 -1.328125 -0.203125 -1.296875 L -0.296875 -1.234375 C -0.472656 -1.140625 -0.566406 -1.050781 -0.578125 -0.96875 C -0.585938 -0.914062 -0.539062 -0.832031 -0.4375 -0.71875 C -0.144531 -0.445312 0.132812 -0.300781 0.40625 -0.28125 C 0.675781 -0.289062 1.039062 -0.429688 1.5 -0.703125 C 1.632812 -0.785156 1.753906 -0.859375 1.859375 -0.921875 C 1.972656 -0.992188 2.085938 -1.066406 2.203125 -1.140625 C 2.285156 -1.234375 2.367188 -1.3125 2.453125 -1.375 C 2.523438 -1.425781 2.597656 -1.476562 2.671875 -1.53125 C 2.828125 -1.695312 2.9375 -1.867188 3 -2.046875 C 3.050781 -2.222656 3.066406 -2.40625 3.046875 -2.59375 C 3.035156 -2.78125 2.988281 -2.972656 2.90625 -3.171875 C 2.84375 -3.335938 2.757812 -3.519531 2.65625 -3.71875 C 2.519531 -3.976562 2.351562 -4.273438 2.15625 -4.609375 C 2.070312 -4.785156 1.972656 -4.96875 1.859375 -5.15625 L 1.5 -5.765625 L -1.765625 -11.203125 C -1.816406 -11.378906 -1.859375 -11.492188 -1.890625 -11.546875 C -1.898438 -11.597656 -1.90625 -11.628906 -1.90625 -11.640625 L -1.890625 -11.671875 L -1.875 -11.671875 L -1.953125 -11.8125 L -3.015625 -11.1875 Z M -2.9375 -11.046875 "/></g></g></g><g fill="#ffffff" fill-opacity="1"><g transform="translate(235.560373, 245.198403)"><g><path d="M 0.59375 -0.53125 L 0.484375 -0.65625 L 0.453125 -0.640625 C 0.421875 -0.609375 0.359375 -0.679688 0.265625 -0.859375 C 0.222656 -0.953125 0.160156 -1.082031 0.078125 -1.25 C 0.00390625 -1.40625 -0.09375 -1.601562 -0.21875 -1.84375 L -1.25 -4.234375 L 1.90625 -7.078125 L 4.453125 -5.703125 C 4.859375 -5.503906 5.128906 -5.363281 5.265625 -5.28125 C 5.398438 -5.195312 5.453125 -5.140625 5.421875 -5.109375 L 5.53125 -4.984375 L 6.46875 -5.84375 L 6.359375 -5.96875 L 6.359375 -5.953125 C 6.328125 -5.929688 6.253906 -5.925781 6.140625 -5.9375 C 6.109375 -5.976562 6.035156 -6.019531 5.921875 -6.0625 C 5.796875 -6.09375 5.710938 -6.117188 5.671875 -6.140625 L -4.390625 -11.390625 L -4.5625 -11.234375 L -0.328125 -1.390625 C -0.296875 -1.296875 -0.253906 -1.210938 -0.203125 -1.140625 C -0.160156 -1.046875 -0.128906 -0.953125 -0.109375 -0.859375 C -0.0859375 -0.804688 -0.0664062 -0.757812 -0.046875 -0.71875 C -0.0234375 -0.644531 -0.00390625 -0.585938 0.015625 -0.546875 C 0.0664062 -0.378906 0.078125 -0.285156 0.046875 -0.265625 L 0.03125 -0.25 L 0.140625 -0.125 Z M -3.859375 -10.171875 L 1.671875 -7.203125 L -1.34375 -4.484375 Z M -3.859375 -10.171875 "/></g></g></g><g fill="#ffffff" fill-opacity="1"><g transform="translate(244.086821, 237.054462)"><g><path d="M -0.015625 -1.25 L 0.109375 -1.15625 C 0.160156 -1.125 0.203125 -1.082031 0.234375 -1.03125 C 0.359375 -0.945312 0.398438 -0.875 0.359375 -0.8125 L 0.34375 -0.796875 L 0.484375 -0.703125 L 2.703125 -3.953125 C 3.046875 -4.441406 3.328125 -4.898438 3.546875 -5.328125 C 3.742188 -5.753906 3.847656 -6.164062 3.859375 -6.5625 C 3.859375 -6.957031 3.738281 -7.335938 3.5 -7.703125 C 3.269531 -8.054688 2.878906 -8.421875 2.328125 -8.796875 C 2.171875 -8.898438 2.015625 -9 1.859375 -9.09375 C 1.679688 -9.195312 1.503906 -9.28125 1.328125 -9.34375 C 1.148438 -9.40625 0.96875 -9.457031 0.78125 -9.5 C 0.59375 -9.507812 0.40625 -9.488281 0.21875 -9.4375 C 0.0507812 -9.414062 -0.109375 -9.367188 -0.265625 -9.296875 C -0.390625 -9.253906 -0.523438 -9.175781 -0.671875 -9.0625 C -0.816406 -8.945312 -0.957031 -8.832031 -1.09375 -8.71875 C -1.238281 -8.582031 -1.375 -8.445312 -1.5 -8.3125 C -1.613281 -8.1875 -1.710938 -8.070312 -1.796875 -7.96875 C -1.617188 -8.34375 -1.507812 -8.679688 -1.46875 -8.984375 C -1.414062 -9.285156 -1.4375 -9.566406 -1.53125 -9.828125 C -1.601562 -10.078125 -1.75 -10.3125 -1.96875 -10.53125 C -2.175781 -10.757812 -2.441406 -10.988281 -2.765625 -11.21875 C -3.203125 -11.507812 -3.570312 -11.691406 -3.875 -11.765625 C -4.25 -11.867188 -4.59375 -11.863281 -4.90625 -11.75 C -5.207031 -11.613281 -5.484375 -11.414062 -5.734375 -11.15625 C -5.890625 -11.007812 -6.054688 -10.820312 -6.234375 -10.59375 C -6.265625 -10.550781 -6.300781 -10.503906 -6.34375 -10.453125 L -6.453125 -10.28125 L -8.703125 -7 L -8.578125 -6.90625 L -8.5625 -6.921875 C -8.519531 -6.992188 -8.4375 -6.988281 -8.3125 -6.90625 C -8.238281 -6.882812 -8.140625 -6.828125 -8.015625 -6.734375 Z M -2.765625 -6.328125 L -2.4375 -6.796875 C -2.34375 -6.929688 -2.242188 -7.0625 -2.140625 -7.1875 C -2.046875 -7.3125 -1.953125 -7.429688 -1.859375 -7.546875 C -1.773438 -7.648438 -1.679688 -7.742188 -1.578125 -7.828125 C -1.242188 -8.191406 -0.890625 -8.4375 -0.515625 -8.5625 C -0.171875 -8.707031 0.1875 -8.722656 0.5625 -8.609375 C 0.800781 -8.546875 1.015625 -8.460938 1.203125 -8.359375 C 1.398438 -8.242188 1.59375 -8.117188 1.78125 -7.984375 C 2.050781 -7.804688 2.289062 -7.625 2.5 -7.4375 C 2.71875 -7.25 2.882812 -7.050781 3 -6.84375 C 3.132812 -6.613281 3.222656 -6.375 3.265625 -6.125 C 3.296875 -5.851562 3.25 -5.554688 3.125 -5.234375 C 3.039062 -5.046875 2.953125 -4.851562 2.859375 -4.65625 C 2.804688 -4.550781 2.742188 -4.445312 2.671875 -4.34375 C 2.617188 -4.238281 2.546875 -4.117188 2.453125 -3.984375 L 0.90625 -1.71875 L -3.734375 -4.90625 Z M -7.90625 -7.75 L -6.53125 -9.75 C -6.238281 -10.175781 -5.992188 -10.46875 -5.796875 -10.625 C -5.546875 -10.875 -5.300781 -11.015625 -5.0625 -11.046875 C -4.851562 -11.117188 -4.59375 -11.097656 -4.28125 -10.984375 C -4.03125 -10.890625 -3.703125 -10.707031 -3.296875 -10.4375 C -2.597656 -9.945312 -2.164062 -9.472656 -2 -9.015625 C -1.851562 -8.535156 -1.984375 -7.929688 -2.390625 -7.203125 L -2.765625 -6.671875 L -3.5 -5.53125 L -3.875 -4.984375 Z M -7.90625 -7.75 "/></g></g></g><g fill="#ffffff" fill-opacity="1"><g transform="translate(250.362134, 227.2099)"><g><path d="M -8.328125 -8.53125 L -8.25 -8.734375 C -8.226562 -8.796875 -8.207031 -8.847656 -8.1875 -8.890625 L -8.0625 -9.21875 C -8.007812 -9.332031 -7.96875 -9.40625 -7.9375 -9.4375 C -7.882812 -9.5625 -7.804688 -9.675781 -7.703125 -9.78125 C -7.679688 -9.8125 -7.640625 -9.859375 -7.578125 -9.921875 C -7.566406 -9.953125 -7.550781 -9.972656 -7.53125 -9.984375 C -7.519531 -9.992188 -7.503906 -10.003906 -7.484375 -10.015625 L -7.4375 -10.15625 L -7.875 -10.34375 L -10.09375 -4.75 L -9.953125 -4.6875 L -9.953125 -4.703125 C -9.921875 -4.773438 -9.832031 -4.785156 -9.6875 -4.734375 C -9.625 -4.734375 -9.519531 -4.695312 -9.375 -4.625 L -0.359375 -1.03125 L -0.203125 -0.96875 C -0.148438 -0.945312 -0.101562 -0.914062 -0.0625 -0.875 C 0.0703125 -0.820312 0.125 -0.765625 0.09375 -0.703125 L 0.09375 -0.6875 L 0.25 -0.625 L 2.515625 -6.296875 C 2.492188 -6.304688 2.476562 -6.316406 2.46875 -6.328125 C 2.46875 -6.328125 2.460938 -6.328125 2.453125 -6.328125 C 2.429688 -6.347656 2.421875 -6.351562 2.421875 -6.34375 L 2.40625 -6.359375 C 2.351562 -6.410156 2.289062 -6.453125 2.21875 -6.484375 C 2.1875 -6.503906 2.140625 -6.523438 2.078125 -6.546875 C 2.035156 -6.523438 2.015625 -6.507812 2.015625 -6.5 C 1.992188 -6.46875 2 -6.441406 2.03125 -6.421875 C 2.03125 -6.367188 2.035156 -6.316406 2.046875 -6.265625 C 2.046875 -6.234375 2.039062 -6.207031 2.03125 -6.1875 C 2.007812 -6.15625 2.003906 -6.117188 2.015625 -6.078125 C 2.015625 -6.035156 2.003906 -5.972656 1.984375 -5.890625 L 1.9375 -5.78125 C 1.925781 -5.757812 1.925781 -5.71875 1.9375 -5.65625 C 1.90625 -5.570312 1.867188 -5.476562 1.828125 -5.375 C 1.796875 -5.257812 1.769531 -5.164062 1.75 -5.09375 L 1.6875 -4.90625 C 1.65625 -4.84375 1.632812 -4.773438 1.625 -4.703125 L 0.421875 -1.71875 L -4.78125 -3.78125 L -3.734375 -6.390625 L -3.640625 -6.640625 C -3.609375 -6.710938 -3.578125 -6.773438 -3.546875 -6.828125 C -3.453125 -7.054688 -3.34375 -7.179688 -3.21875 -7.203125 L -3.15625 -7.328125 L -3.6875 -7.53125 L -3.75 -7.40625 C -3.707031 -7.332031 -3.707031 -7.191406 -3.75 -6.984375 C -3.769531 -6.929688 -3.789062 -6.882812 -3.8125 -6.84375 C -3.820312 -6.78125 -3.84375 -6.710938 -3.875 -6.640625 L -4.984375 -3.875 L -9.484375 -5.65625 Z M -8.328125 -8.53125 "/></g></g></g><g fill="#ffffff" fill-opacity="1"><g transform="translate(253.891175, 217.597646)"><g><path d="M -9.921875 -6.640625 L -9.875 -6.859375 C -9.863281 -6.921875 -9.847656 -6.976562 -9.828125 -7.03125 L -9.78125 -7.375 C -9.75 -7.488281 -9.722656 -7.566406 -9.703125 -7.609375 C -9.679688 -7.742188 -9.628906 -7.875 -9.546875 -8 C -9.535156 -8.039062 -9.503906 -8.09375 -9.453125 -8.15625 C -9.453125 -8.1875 -9.445312 -8.210938 -9.4375 -8.234375 C -9.414062 -8.253906 -9.394531 -8.269531 -9.375 -8.28125 L -9.34375 -8.421875 L -9.8125 -8.515625 L -10.859375 -2.578125 L -10.703125 -2.546875 L -10.6875 -2.5625 C -10.675781 -2.644531 -10.597656 -2.671875 -10.453125 -2.640625 C -10.390625 -2.660156 -10.28125 -2.648438 -10.125 -2.609375 L -0.5625 -0.9375 L -0.40625 -0.90625 C -0.351562 -0.894531 -0.300781 -0.875 -0.25 -0.84375 C -0.101562 -0.820312 -0.0351562 -0.773438 -0.046875 -0.703125 L -0.0625 -0.6875 L 0.109375 -0.65625 L 1.171875 -6.6875 C 1.148438 -6.6875 1.132812 -6.695312 1.125 -6.71875 C 1.125 -6.71875 1.117188 -6.71875 1.109375 -6.71875 C 1.085938 -6.71875 1.078125 -6.71875 1.078125 -6.71875 L 1.046875 -6.71875 C 0.984375 -6.75 0.914062 -6.773438 0.84375 -6.796875 C 0.8125 -6.804688 0.765625 -6.816406 0.703125 -6.828125 C 0.671875 -6.804688 0.65625 -6.789062 0.65625 -6.78125 C 0.644531 -6.75 0.648438 -6.726562 0.671875 -6.71875 C 0.679688 -6.65625 0.691406 -6.601562 0.703125 -6.5625 C 0.710938 -6.519531 0.710938 -6.484375 0.703125 -6.453125 C 0.703125 -6.421875 0.707031 -6.390625 0.71875 -6.359375 C 0.726562 -6.316406 0.734375 -6.253906 0.734375 -6.171875 L 0.71875 -6.0625 C 0.71875 -6.03125 0.726562 -5.984375 0.75 -5.921875 C 0.726562 -5.828125 0.707031 -5.734375 0.6875 -5.640625 C 0.6875 -5.523438 0.679688 -5.425781 0.671875 -5.34375 L 0.640625 -5.15625 C 0.628906 -5.082031 0.625 -5.007812 0.625 -4.9375 L 0.0625 -1.765625 L -5.4375 -2.71875 L -4.953125 -5.5 L -4.90625 -5.75 C -4.882812 -5.832031 -4.867188 -5.898438 -4.859375 -5.953125 C -4.804688 -6.203125 -4.726562 -6.347656 -4.625 -6.390625 L -4.609375 -6.53125 L -5.15625 -6.640625 L -5.171875 -6.5 C -5.117188 -6.425781 -5.097656 -6.28125 -5.109375 -6.0625 C -5.117188 -6.007812 -5.128906 -5.957031 -5.140625 -5.90625 C -5.140625 -5.84375 -5.144531 -5.769531 -5.15625 -5.6875 L -5.671875 -2.765625 L -10.453125 -3.59375 Z M -9.921875 -6.640625 "/></g></g></g><g fill="#ffffff" fill-opacity="1"><g transform="translate(255.466146, 207.365503)"><g><path d="M -11 -0.125 L -11.015625 -0.15625 C -11.015625 -0.21875 -10.9375 -0.253906 -10.78125 -0.265625 C -10.71875 -0.296875 -10.609375 -0.304688 -10.453125 -0.296875 L -0.765625 -0.828125 L -0.609375 -0.828125 C -0.546875 -0.828125 -0.488281 -0.820312 -0.4375 -0.8125 C -0.289062 -0.8125 -0.21875 -0.785156 -0.21875 -0.734375 L -0.203125 -0.703125 L -0.03125 -0.71875 L -0.078125 -1.296875 L -0.25 -1.28125 L -0.234375 -1.265625 C -0.234375 -1.222656 -0.3125 -1.1875 -0.46875 -1.15625 C -0.519531 -1.144531 -0.578125 -1.140625 -0.640625 -1.140625 C -0.679688 -1.128906 -0.738281 -1.117188 -0.8125 -1.109375 L -10.375 -0.59375 L -0.265625 -8.46875 L -0.28125 -8.78125 L -10.328125 -8.234375 C -10.460938 -8.234375 -10.578125 -8.238281 -10.671875 -8.25 C -10.765625 -8.238281 -10.84375 -8.234375 -10.90625 -8.234375 C -10.988281 -8.234375 -11.054688 -8.234375 -11.109375 -8.234375 C -11.148438 -8.222656 -11.191406 -8.21875 -11.234375 -8.21875 C -11.378906 -8.21875 -11.453125 -8.25 -11.453125 -8.3125 L -11.453125 -8.328125 L -11.609375 -8.3125 L -11.578125 -7.734375 L -11.421875 -7.75 L -11.421875 -7.765625 C -11.429688 -7.847656 -11.359375 -7.894531 -11.203125 -7.90625 C -11.140625 -7.9375 -11.03125 -7.945312 -10.875 -7.9375 L -1.8125 -8.421875 L -11.21875 -1.09375 L -11.15625 -0.109375 Z M -11 -0.125 "/></g></g></g><g clip-path="url(#b833b734c8)"><path fill="#ffffff" d="M 278.96875 192.273438 C 278.890625 191.515625 278.96875 189.09375 278.589844 185.078125 C 278.363281 183.109375 278.058594 180.761719 277.605469 178.035156 C 277.527344 177.351562 277.300781 176.667969 277.148438 175.988281 C 276.996094 175.304688 276.847656 174.550781 276.617188 173.792969 C 276.46875 173.035156 276.164062 172.277344 276.011719 171.519531 C 275.785156 170.761719 275.558594 169.929688 275.253906 169.171875 C 274.953125 168.335938 274.726562 167.503906 274.421875 166.671875 C 274.121094 165.835938 273.742188 165.003906 273.4375 164.09375 C 273.132812 163.1875 272.679688 162.351562 272.300781 161.445312 C 271.921875 160.535156 271.542969 159.625 271.011719 158.792969 C 269.195312 155.15625 267 151.445312 264.273438 147.808594 C 261.542969 144.097656 258.289062 140.460938 254.5 137.050781 C 250.710938 133.644531 246.394531 130.386719 241.546875 127.660156 C 236.699219 124.855469 231.472656 122.507812 225.714844 120.839844 C 220.035156 119.175781 213.898438 118.039062 207.609375 117.8125 C 194.960938 117.28125 181.550781 119.855469 169.433594 126.371094 C 157.3125 132.734375 146.632812 142.808594 139.511719 155.234375 C 138.601562 156.746094 137.84375 158.414062 137.011719 160.003906 C 136.253906 161.671875 135.496094 163.261719 134.890625 164.929688 C 134.207031 166.59375 133.679688 168.335938 133.070312 170.003906 C 132.769531 170.835938 132.542969 171.746094 132.3125 172.578125 C 132.164062 173.035156 132.085938 173.414062 131.933594 173.867188 L 131.632812 175.15625 C 129.964844 182.199219 129.359375 189.472656 129.738281 196.742188 C 130.496094 211.210938 135.722656 225.300781 144.207031 236.738281 C 152.691406 248.179688 164.28125 256.890625 176.855469 261.890625 C 183.144531 264.390625 189.65625 265.902344 196.097656 266.660156 C 202.535156 267.34375 208.972656 267.191406 215.109375 266.359375 C 227.382812 264.539062 238.363281 259.84375 247.152344 253.632812 C 256.015625 247.421875 262.679688 239.921875 267.378906 232.5 C 269.726562 228.785156 271.621094 225.148438 273.132812 221.664062 C 274.574219 218.179688 275.710938 214.847656 276.542969 211.816406 C 278.210938 205.757812 278.738281 200.835938 278.96875 197.5 C 279.042969 196.667969 279.117188 195.910156 279.117188 195.304688 C 279.117188 194.699219 279.117188 194.09375 279.195312 193.714844 C 279.195312 192.878906 279.195312 192.425781 279.195312 192.425781 C 279.648438 198.941406 279.347656 205.53125 278.132812 212.046875 C 276.921875 218.558594 274.875 225 271.921875 231.058594 C 267.226562 239.164062 261.089844 246.359375 253.816406 252.269531 C 246.621094 258.175781 238.289062 262.722656 229.503906 265.675781 C 225.109375 267.191406 220.5625 268.253906 215.941406 268.933594 C 211.320312 269.617188 206.703125 269.84375 202.082031 269.617188 C 192.839844 269.3125 183.597656 267.34375 175.113281 263.707031 C 158.070312 256.585938 143.675781 243.101562 135.722656 226.515625 C 131.707031 218.257812 129.207031 209.242188 128.300781 200.152344 C 127.464844 190.988281 128.300781 181.746094 130.648438 172.882812 C 132.996094 164.019531 137.085938 155.6875 142.464844 148.261719 C 147.84375 140.839844 154.507812 134.476562 162.085938 129.402344 C 177.308594 119.328125 196.097656 115.007812 214.125 117.585938 C 223.0625 118.796875 231.851562 121.597656 239.804688 125.992188 C 247.757812 130.308594 254.878906 136.066406 260.789062 142.886719 C 266.695312 149.703125 271.390625 157.582031 274.421875 165.988281 C 277.453125 174.320312 278.96875 183.335938 278.96875 192.273438 Z M 278.96875 192.273438 " fill-opacity="1" fill-rule="nonzero"/></g><path fill="#ffffff" d="M 263.664062 140.992188 C 263.4375 140.765625 262.984375 140.234375 262.378906 139.476562 C 261.695312 138.71875 260.710938 137.734375 259.574219 136.597656 C 257.152344 134.25 253.742188 131.144531 249.046875 127.8125 C 244.347656 124.476562 238.363281 121.21875 231.09375 118.492188 C 223.820312 115.917969 215.261719 113.949219 205.945312 113.871094 C 196.550781 113.644531 186.398438 115.160156 176.476562 118.949219 C 166.554688 122.734375 156.859375 128.796875 148.753906 136.902344 C 140.570312 145.082031 133.980469 155.234375 130.117188 166.671875 C 128.148438 172.351562 126.859375 178.335938 126.179688 184.320312 C 125.574219 190.378906 125.648438 196.515625 126.480469 202.578125 C 127.996094 214.695312 132.542969 226.285156 139.207031 236.210938 C 145.949219 246.058594 154.738281 254.3125 164.585938 260.070312 C 174.355469 265.828125 185.035156 269.238281 195.414062 270.375 C 205.792969 271.507812 215.714844 270.601562 224.503906 268.328125 C 228.894531 267.191406 232.988281 265.675781 236.773438 263.933594 C 240.5625 262.269531 243.96875 260.375 247.078125 258.328125 C 248.667969 257.34375 250.03125 256.285156 251.46875 255.300781 C 252.152344 254.769531 252.832031 254.238281 253.4375 253.707031 C 253.742188 253.480469 254.121094 253.179688 254.425781 252.949219 C 254.726562 252.648438 255.03125 252.421875 255.332031 252.191406 C 255.9375 251.664062 256.546875 251.132812 257.074219 250.679688 C 257.605469 250.148438 258.136719 249.617188 258.667969 249.164062 C 259.195312 248.632812 259.726562 248.179688 260.179688 247.648438 C 260.636719 247.117188 261.164062 246.664062 261.621094 246.207031 C 265.257812 242.34375 267.679688 239.011719 269.269531 236.664062 C 270.863281 234.316406 271.621094 233.027344 271.621094 233.027344 C 266.695312 242.722656 259.574219 251.585938 250.863281 258.707031 C 247.683594 260.90625 244.347656 262.949219 240.789062 264.617188 L 239.5 265.296875 L 238.136719 265.902344 C 237.230469 266.28125 236.394531 266.738281 235.488281 267.039062 C 233.667969 267.722656 231.851562 268.480469 230.03125 269.011719 C 228.214844 269.691406 226.320312 270.144531 224.425781 270.675781 C 222.53125 271.054688 220.640625 271.585938 218.746094 271.886719 C 216.851562 272.265625 214.882812 272.417969 212.988281 272.722656 C 212.003906 272.796875 211.019531 272.875 210.109375 272.949219 L 208.671875 273.023438 C 208.214844 273.023438 207.6875 273.023438 207.230469 273.023438 L 204.351562 273.101562 L 201.472656 273.023438 C 200.488281 273.023438 199.503906 272.949219 198.597656 272.875 C 197.609375 272.796875 196.625 272.722656 195.71875 272.570312 C 191.855469 272.117188 188.066406 271.359375 184.277344 270.449219 C 180.566406 269.386719 176.855469 268.175781 173.296875 266.660156 C 169.734375 265.070312 166.328125 263.328125 162.992188 261.359375 C 149.8125 253.328125 139.054688 241.359375 132.390625 227.5 C 130.800781 224.015625 129.285156 220.453125 128.148438 216.742188 C 127.84375 215.832031 127.617188 214.925781 127.390625 213.9375 C 127.164062 213.03125 126.859375 212.121094 126.707031 211.136719 L 126.101562 208.332031 L 125.648438 205.53125 C 125.042969 201.742188 124.664062 197.878906 124.664062 194.09375 C 124.585938 192.199219 124.738281 190.230469 124.738281 188.335938 C 124.890625 186.441406 124.964844 184.472656 125.269531 182.578125 C 127.238281 167.351562 133.679688 152.808594 143.675781 141.21875 C 153.449219 129.476562 166.703125 120.839844 181.324219 116.523438 C 195.867188 112.207031 211.699219 112.28125 226.246094 116.523438 C 240.714844 120.839844 253.894531 129.476562 263.664062 140.992188 Z M 263.664062 140.992188 " fill-opacity="1" fill-rule="nonzero"/><path fill="#ffffff" d="M 226.09375 113.113281 C 225.867188 113.039062 225.335938 112.886719 224.503906 112.660156 C 223.667969 112.433594 222.53125 112.207031 221.167969 111.902344 C 218.441406 111.371094 214.578125 110.617188 209.808594 110.386719 C 205.035156 110.085938 199.277344 110.085938 192.839844 110.996094 C 186.398438 111.828125 179.355469 113.722656 172.160156 116.75 C 168.597656 118.265625 164.960938 120.160156 161.328125 122.355469 C 157.765625 124.554688 154.207031 127.128906 150.875 130.007812 C 144.132812 135.765625 137.996094 142.960938 133.148438 151.371094 C 128.300781 159.703125 124.816406 169.171875 123.222656 179.09375 C 121.632812 189.015625 121.859375 199.394531 123.90625 209.394531 C 125.953125 219.394531 130.042969 228.9375 135.496094 237.269531 C 140.949219 245.679688 147.917969 252.875 155.570312 258.480469 C 163.21875 264.160156 171.628906 268.175781 179.886719 270.828125 C 184.050781 272.117188 188.21875 273.023438 192.234375 273.628906 C 196.246094 274.238281 200.261719 274.464844 204.050781 274.539062 C 211.625 274.539062 218.59375 273.554688 224.578125 272.039062 C 230.5625 270.523438 235.5625 268.554688 239.578125 266.660156 C 240.5625 266.207031 241.472656 265.675781 242.378906 265.222656 C 242.835938 264.996094 243.214844 264.769531 243.667969 264.539062 C 244.046875 264.3125 244.425781 264.085938 244.804688 263.859375 C 245.5625 263.402344 246.242188 263.027344 246.847656 262.648438 C 247.457031 262.269531 247.984375 261.890625 248.515625 261.585938 C 249.5 260.90625 250.257812 260.449219 250.789062 260.070312 C 251.320312 259.691406 251.546875 259.542969 251.546875 259.542969 C 247.984375 262.417969 244.199219 264.996094 240.183594 267.34375 C 236.167969 269.617188 231.925781 271.585938 227.53125 273.175781 C 221.320312 274.917969 214.882812 275.980469 208.445312 276.207031 C 202.003906 276.433594 195.488281 275.980469 189.203125 274.765625 C 176.476562 272.417969 164.433594 266.964844 154.207031 259.164062 C 149.132812 255.222656 144.433594 250.753906 140.34375 245.832031 C 136.253906 240.90625 132.769531 235.453125 129.890625 229.695312 C 129.132812 228.257812 128.527344 226.816406 127.84375 225.300781 C 127.164062 223.863281 126.632812 222.347656 126.101562 220.832031 C 125.648438 219.316406 125.042969 217.800781 124.585938 216.289062 C 124.207031 214.773438 123.679688 213.183594 123.375 211.667969 C 121.9375 205.457031 121.179688 199.015625 121.179688 192.652344 C 121.179688 179.851562 124.207031 167.125 129.890625 155.6875 C 132.769531 150.003906 136.253906 144.628906 140.269531 139.703125 C 144.359375 134.78125 148.980469 130.386719 154.054688 126.597656 C 159.128906 122.734375 164.660156 119.554688 170.417969 116.976562 C 176.171875 114.480469 182.234375 112.585938 188.519531 111.449219 C 194.734375 110.3125 201.097656 109.859375 207.382812 110.160156 L 208.59375 110.238281 L 209.808594 110.3125 L 212.15625 110.539062 C 213.746094 110.691406 215.261719 110.917969 216.851562 111.144531 C 218.367188 111.449219 219.957031 111.675781 221.472656 112.054688 C 222.988281 112.359375 224.578125 112.660156 226.09375 113.113281 Z M 226.09375 113.113281 " fill-opacity="1" fill-rule="nonzero"/><g clip-path="url(#17a365dde8)"><path fill="#ffffff" d="M 195.261719 107.507812 C 194.429688 107.660156 189.507812 107.964844 181.78125 110.085938 C 174.128906 112.128906 163.675781 116.222656 153.222656 124.023438 C 148.070312 127.960938 142.84375 132.734375 138.148438 138.492188 C 135.796875 141.371094 133.601562 144.476562 131.558594 147.734375 C 131.027344 148.566406 130.570312 149.398438 130.117188 150.234375 C 129.585938 151.066406 129.132812 151.898438 128.679688 152.808594 C 128.222656 153.71875 127.769531 154.550781 127.316406 155.460938 C 126.9375 156.367188 126.480469 157.277344 126.101562 158.1875 C 124.511719 161.898438 123.074219 165.6875 122.011719 169.625 C 120.953125 173.5625 120.042969 177.65625 119.589844 181.820312 L 119.359375 183.410156 C 119.285156 183.941406 119.285156 184.472656 119.210938 185.003906 C 119.132812 186.0625 119.058594 187.125 118.980469 188.109375 C 118.90625 190.230469 118.832031 192.351562 118.90625 194.394531 C 118.90625 196.515625 119.132812 198.636719 119.285156 200.757812 C 119.359375 201.820312 119.511719 202.878906 119.664062 203.941406 C 119.738281 204.46875 119.816406 205 119.890625 205.53125 L 120.195312 207.121094 C 120.421875 208.183594 120.496094 209.242188 120.800781 210.226562 L 121.480469 213.332031 C 121.710938 214.394531 122.011719 215.378906 122.316406 216.363281 C 122.464844 216.894531 122.617188 217.347656 122.769531 217.878906 L 123.300781 219.394531 C 123.679688 220.378906 123.90625 221.363281 124.359375 222.347656 C 124.738281 223.332031 125.117188 224.316406 125.496094 225.300781 C 125.875 226.285156 126.328125 227.195312 126.785156 228.179688 C 127.164062 229.164062 127.695312 230.074219 128.148438 230.984375 C 129.058594 232.875 130.117188 234.617188 131.179688 236.4375 C 132.3125 238.179688 133.375 239.921875 134.585938 241.589844 C 135.722656 243.253906 137.011719 244.84375 138.222656 246.4375 C 138.828125 247.195312 139.511719 247.949219 140.191406 248.707031 L 141.175781 249.84375 L 142.238281 250.90625 C 147.617188 256.585938 153.675781 261.285156 159.8125 265.148438 C 166.023438 268.933594 172.308594 271.660156 178.292969 273.628906 C 184.277344 275.601562 189.960938 276.660156 195.113281 277.191406 C 200.1875 277.722656 204.65625 277.722656 208.292969 277.570312 C 210.109375 277.492188 211.777344 277.34375 213.140625 277.191406 C 214.578125 277.039062 215.792969 276.886719 216.699219 276.738281 C 217.683594 276.585938 218.441406 276.433594 218.898438 276.359375 C 219.425781 276.28125 219.65625 276.207031 219.65625 276.207031 C 216.019531 277.191406 212.230469 277.796875 208.445312 278.328125 L 205.566406 278.628906 L 204.125 278.78125 L 202.6875 278.855469 L 199.808594 279.007812 L 196.929688 279.007812 C 186.324219 278.023438 175.796875 275.144531 166.25 270.375 C 156.707031 265.675781 148.070312 259.085938 140.875 251.285156 C 133.675781 243.480469 127.996094 234.316406 124.058594 224.394531 C 120.195312 214.546875 118.148438 203.941406 118.148438 193.335938 C 118.148438 182.730469 119.96875 172.199219 123.753906 162.277344 C 127.464844 152.429688 133.148438 143.265625 140.191406 135.460938 C 147.238281 127.660156 155.722656 121.144531 165.113281 116.371094 C 174.582031 111.523438 184.808594 108.496094 195.261719 107.507812 Z M 195.261719 107.507812 " fill-opacity="1" fill-rule="nonzero"/></g><g clip-path="url(#b8438159d2)"><path fill="#ffffff" d="M 169.355469 111.449219 C 169.054688 111.601562 167.917969 112.054688 166.175781 112.886719 C 165.339844 113.34375 164.28125 113.871094 163.144531 114.480469 C 161.933594 115.085938 160.722656 115.84375 159.28125 116.675781 C 158.523438 117.054688 157.84375 117.585938 157.085938 118.039062 C 156.328125 118.570312 155.492188 119.023438 154.738281 119.554688 C 153.144531 120.691406 151.402344 121.902344 149.738281 123.265625 C 146.253906 125.992188 142.539062 129.324219 138.980469 133.339844 C 135.34375 137.355469 131.859375 141.976562 128.753906 147.203125 C 125.648438 152.429688 122.921875 158.261719 120.800781 164.550781 C 116.558594 177.125 115.269531 191.441406 117.238281 205.304688 C 119.285156 219.164062 124.738281 232.421875 132.3125 243.027344 C 139.8125 253.707031 149.207031 261.890625 158.070312 267.269531 C 162.464844 269.996094 166.78125 272.117188 170.71875 273.707031 C 171.703125 274.085938 172.6875 274.464844 173.597656 274.84375 C 174.507812 275.222656 175.417969 275.449219 176.324219 275.75 C 178.066406 276.359375 179.660156 276.8125 181.097656 277.191406 C 182.535156 277.644531 183.898438 277.871094 185.035156 278.175781 C 185.644531 278.328125 186.171875 278.402344 186.628906 278.554688 C 187.082031 278.628906 187.535156 278.707031 187.992188 278.78125 C 189.582031 279.085938 190.414062 279.234375 190.414062 279.234375 C 184.203125 278.628906 177.992188 277.417969 171.933594 275.449219 C 155.570312 268.933594 141.328125 257.496094 131.40625 243.101562 C 126.40625 235.90625 122.542969 227.953125 119.890625 219.621094 C 117.238281 211.289062 115.875 202.578125 115.800781 193.867188 L 115.800781 192.199219 L 115.875 190.53125 C 115.953125 189.472656 115.953125 188.335938 116.027344 187.273438 C 116.179688 185.078125 116.332031 182.957031 116.710938 180.761719 C 116.9375 178.5625 117.390625 176.441406 117.769531 174.320312 C 118.300781 172.199219 118.753906 170.078125 119.359375 167.957031 C 119.890625 165.835938 120.722656 163.792969 121.40625 161.746094 C 122.238281 159.703125 122.996094 157.65625 123.90625 155.761719 C 124.816406 153.792969 125.800781 151.824219 126.859375 149.929688 C 127.921875 148.035156 129.058594 146.140625 130.269531 144.324219 C 139.511719 129.855469 153.371094 118.265625 169.355469 111.449219 Z M 169.355469 111.449219 " fill-opacity="1" fill-rule="nonzero"/></g><g clip-path="url(#811700c1e9)"><path fill="#ffffff" d="M 153.523438 117.660156 C 153.070312 118.039062 150.265625 119.855469 146.101562 123.265625 C 142.011719 126.75 136.554688 131.976562 131.328125 139.097656 C 126.101562 146.21875 121.179688 155.234375 117.996094 165.609375 C 114.738281 175.988281 113.375 187.578125 114.285156 199.015625 C 115.117188 210.453125 118.226562 221.664062 122.84375 231.285156 C 127.542969 240.90625 133.527344 249.011719 139.511719 255.148438 C 140.269531 255.90625 141.027344 256.664062 141.707031 257.34375 C 142.464844 258.027344 143.148438 258.785156 143.902344 259.390625 C 145.34375 260.675781 146.707031 261.890625 148.144531 262.949219 C 148.828125 263.480469 149.507812 264.011719 150.117188 264.464844 C 150.796875 264.917969 151.402344 265.375 152.007812 265.828125 C 152.617188 266.28125 153.222656 266.660156 153.75 267.039062 C 154.359375 267.417969 154.886719 267.796875 155.417969 268.101562 C 157.464844 269.464844 159.207031 270.375 160.34375 271.054688 C 160.949219 271.359375 161.328125 271.660156 161.707031 271.8125 C 162.007812 271.964844 162.160156 272.039062 162.160156 272.039062 C 157.464844 269.917969 152.996094 267.417969 148.675781 264.539062 C 137.3125 255.753906 128.148438 244.164062 122.089844 231.210938 C 119.058594 224.695312 116.785156 217.878906 115.347656 210.832031 C 113.90625 203.789062 113.375 196.667969 113.605469 189.546875 C 114.058594 175.304688 117.996094 161.140625 124.964844 148.640625 C 128.449219 142.429688 132.617188 136.597656 137.464844 131.371094 C 142.238281 126.296875 147.617188 121.675781 153.523438 117.660156 Z M 153.523438 117.660156 " fill-opacity="1" fill-rule="nonzero"/></g></svg>