<svg xmlns="http://www.w3.org/2000/svg" xmlns:xlink="http://www.w3.org/1999/xlink" width="500" zoomAndPan="magnify" viewBox="0 0 375 374.999991" height="500" preserveAspectRatio="xMidYMid meet" version="1.0"><defs><g/><clipPath id="6916f8fc6c"><rect x="0" width="189" y="0" height="338"/></clipPath><clipPath id="1fb33a34d4"><path d="M 11.15625 11.410156 L 365.15625 11.410156 L 365.15625 365.410156 L 11.15625 365.410156 Z M 11.15625 11.410156 " clip-rule="nonzero"/></clipPath></defs><g transform="matrix(1, 0, 0, 1, 68, 6)"><g clip-path="url(#6916f8fc6c)"><g fill="#ffffff" fill-opacity="1"><g transform="translate(2.543394, 259.428162)"><g><path d="M 13.859375 -172.40625 L 13.578125 -11.921875 L 13.578125 -8.875 C 13.578125 -8.132812 13.394531 -7.300781 13.03125 -6.375 C 13.03125 -3.96875 12.472656 -2.765625 11.359375 -2.765625 L 11.09375 -2.765625 L 11.09375 0 L 44.625 0 L 44.625 -2.765625 L 44.078125 -2.765625 C 43.335938 -2.765625 42.734375 -3.273438 42.265625 -4.296875 C 41.804688 -5.316406 41.4375 -6.519531 41.15625 -7.90625 C 40.882812 -9.289062 40.75 -10.535156 40.75 -11.640625 L 40.75 -92.859375 L 87.859375 -92.859375 C 88.972656 -92.859375 89.988281 -92.671875 90.90625 -92.296875 C 95.15625 -91.929688 97.742188 -91.285156 98.671875 -90.359375 L 99.5 -90.078125 L 101.71875 -90.078125 L 101.71875 -102 L 99.5 -102 C 98.019531 -101.632812 96.820312 -101.265625 95.90625 -100.890625 L 95.078125 -100.890625 C 94.890625 -100.703125 94.519531 -100.609375 93.96875 -100.609375 L 92.578125 -100.609375 C 92.203125 -100.609375 91.738281 -100.519531 91.1875 -100.34375 C 89.894531 -100.34375 88.785156 -100.25 87.859375 -100.0625 L 85.921875 -100.0625 C 85.367188 -100.0625 84.628906 -99.96875 83.703125 -99.78125 L 81.484375 -99.78125 C 80.566406 -99.78125 79.550781 -99.6875 78.4375 -99.5 L 40.75 -99.5 L 40.75 -176 L 104.765625 -176 C 105.691406 -176 106.617188 -175.910156 107.546875 -175.734375 L 112.8125 -175.734375 C 114.84375 -175.734375 116.320312 -175.546875 117.25 -175.171875 C 119.46875 -175.171875 121.773438 -174.710938 124.171875 -173.796875 L 126.671875 -172.953125 C 127.410156 -172.953125 128.238281 -172.582031 129.15625 -171.84375 L 131.375 -171.84375 L 131.375 -182.9375 L 11.09375 -182.9375 L 11.09375 -180.171875 L 11.359375 -180.171875 C 12.648438 -180.171875 13.296875 -178.875 13.296875 -176.28125 C 13.671875 -175.539062 13.859375 -174.617188 13.859375 -173.515625 Z M 13.859375 -172.40625 "/></g></g></g><g fill="#ffffff" fill-opacity="1"><g transform="translate(103.27096, 259.428162)"><g><path d="M 50.453125 -17.46875 C 50.453125 -12.476562 49.476562 -8.78125 47.53125 -6.375 C 45.59375 -3.96875 42.222656 -2.765625 37.421875 -2.765625 C 33.171875 -2.765625 29.9375 -3.597656 27.71875 -5.265625 C 25.875 -7.109375 24.394531 -9.972656 23.28125 -13.859375 C 22.726562 -18.109375 21.34375 -20.972656 19.125 -22.453125 C 17.832031 -23.929688 14.96875 -24.671875 10.53125 -24.671875 C 7.945312 -24.671875 5.453125 -24.390625 3.046875 -23.828125 C 0.648438 -23.273438 -0.546875 -21.425781 -0.546875 -18.28125 C -0.546875 -15.144531 0.375 -11.914062 2.21875 -8.59375 C 4.070312 -5.269531 6.382812 -2.679688 9.15625 -0.828125 C 11.738281 0.273438 14.878906 1.148438 18.578125 1.796875 C 22.273438 2.441406 27.078125 2.765625 32.984375 2.765625 C 44.253906 2.765625 52.984375 1.472656 59.171875 -1.109375 C 65.367188 -3.691406 69.945312 -7.382812 72.90625 -12.1875 C 75.863281 -17 77.617188 -22.867188 78.171875 -29.796875 C 78.722656 -36.722656 79 -44.625 79 -53.5 L 79 -165.203125 C 79 -166.117188 79.09375 -167.039062 79.28125 -167.96875 L 79.28125 -176.5625 C 79.457031 -178.96875 80.007812 -180.171875 80.9375 -180.171875 L 81.21875 -180.171875 C 81.40625 -180.171875 81.5 -180.257812 81.5 -180.4375 C 81.863281 -180.8125 81.769531 -181.179688 81.21875 -181.546875 C 81.40625 -181.921875 81.5 -182.289062 81.5 -182.65625 C 81.5 -182.84375 81.40625 -182.9375 81.21875 -182.9375 L 49.34375 -182.9375 L 49.34375 -180.171875 L 49.625 -180.171875 C 50.726562 -180.171875 51.28125 -178.875 51.28125 -176.28125 C 51.65625 -175.539062 51.84375 -174.617188 51.84375 -173.515625 L 51.84375 -172.40625 L 51.5625 -39.078125 L 51.5625 -32.421875 C 51.5625 -30.578125 51.375 -28.640625 51 -26.609375 C 51 -24.941406 50.953125 -23.367188 50.859375 -21.890625 C 50.773438 -20.410156 50.640625 -18.9375 50.453125 -17.46875 Z M 50.453125 -17.46875 "/></g></g></g></g></g><g clip-path="url(#1fb33a34d4)"><path fill="#ffffff" d="M 365.15625 188.40625 C 365.15625 286.160156 285.910156 365.40625 188.15625 365.40625 C 90.402344 365.40625 11.15625 286.160156 11.15625 188.40625 C 11.15625 90.652344 90.402344 11.40625 188.15625 11.40625 C 285.910156 11.40625 365.15625 90.652344 365.15625 188.40625 M 360.074219 188.40625 C 360.074219 93.457031 283.105469 16.488281 188.15625 16.488281 C 93.207031 16.488281 16.238281 93.457031 16.238281 188.40625 C 16.238281 283.355469 93.207031 360.328125 188.15625 360.328125 C 283.105469 360.328125 360.074219 283.355469 360.074219 188.40625 Z M 360.074219 188.40625 " fill-opacity="1" fill-rule="nonzero"/></g><g fill="#ffffff" fill-opacity="1"><g transform="translate(128.915804, 304.499674)"><g><path d="M 16.765625 -18.28125 L 2.59375 -0.140625 L 2.328125 0.203125 C 2.265625 0.285156 2.171875 0.363281 2.046875 0.4375 C 1.828125 0.707031 1.648438 0.789062 1.515625 0.6875 L 1.484375 0.671875 L 1.25 0.984375 L 5.046875 3.921875 L 5.28125 3.609375 L 5.21875 3.5625 C 5.132812 3.5 5.109375 3.390625 5.140625 3.234375 C 5.179688 3.078125 5.25 2.90625 5.34375 2.71875 C 5.445312 2.539062 5.546875 2.394531 5.640625 2.28125 L 5.875 1.96875 L 12.796875 -6.90625 L 17.609375 -3.15625 L 18.125 -2.75 C 18.238281 -2.65625 18.335938 -2.546875 18.421875 -2.421875 C 18.867188 -2.003906 19.101562 -1.707031 19.125 -1.53125 L 19.1875 -1.40625 L 19.4375 -1.203125 L 20.484375 -2.5625 L 20.234375 -2.765625 C 20.035156 -2.847656 19.867188 -2.910156 19.734375 -2.953125 L 19.640625 -3.03125 C 19.597656 -3.019531 19.546875 -3.039062 19.484375 -3.09375 L 19.328125 -3.21875 C 19.285156 -3.25 19.226562 -3.273438 19.15625 -3.296875 C 19.007812 -3.410156 18.875 -3.5 18.75 -3.5625 L 18.515625 -3.75 C 18.460938 -3.789062 18.378906 -3.84375 18.265625 -3.90625 L 18.015625 -4.09375 C 17.910156 -4.175781 17.785156 -4.253906 17.640625 -4.328125 L 13.375 -7.65625 L 20.125 -16.3125 L 26.953125 -10.984375 L 27.359375 -10.671875 C 27.460938 -10.585938 27.554688 -10.488281 27.640625 -10.375 L 28.234375 -9.921875 C 28.460938 -9.734375 28.617188 -9.578125 28.703125 -9.453125 C 28.941406 -9.265625 29.15625 -9.015625 29.34375 -8.703125 L 29.5625 -8.40625 C 29.644531 -8.332031 29.710938 -8.210938 29.765625 -8.046875 L 30 -7.859375 L 30.96875 -9.09375 L 17.375 -19.6875 L 17.125 -19.390625 L 17.15625 -19.375 C 17.300781 -19.257812 17.257812 -19.050781 17.03125 -18.75 C 17.007812 -18.632812 16.953125 -18.519531 16.859375 -18.40625 Z M 16.765625 -18.28125 "/></g></g></g><g fill="#ffffff" fill-opacity="1"><g transform="translate(149.165351, 319.071105)"><g><path d="M 2.53125 -0.5625 L 2.34375 -0.21875 C 2.28125 -0.09375 2.191406 0.0078125 2.078125 0.09375 C 1.910156 0.394531 1.753906 0.507812 1.609375 0.4375 L 1.59375 0.421875 L 1.40625 0.765625 L 5.453125 2.96875 L 5.640625 2.625 L 5.5625 2.578125 C 5.488281 2.546875 5.503906 2.34375 5.609375 1.96875 L 5.75 1.734375 C 5.789062 1.597656 5.910156 1.347656 6.109375 0.984375 L 16.25 -17.625 L 16.453125 -18 C 16.515625 -18.113281 16.585938 -18.222656 16.671875 -18.328125 L 16.90625 -18.765625 C 17.019531 -18.910156 17.109375 -19.039062 17.171875 -19.15625 L 17.3125 -19.40625 C 17.539062 -19.664062 17.675781 -19.785156 17.71875 -19.765625 L 17.796875 -19.71875 L 17.984375 -20.0625 L 13.9375 -22.265625 L 13.75 -21.921875 L 13.765625 -21.90625 C 13.929688 -21.820312 13.925781 -21.613281 13.75 -21.28125 C 13.75 -21.15625 13.710938 -21.023438 13.640625 -20.890625 L 13.5625 -20.75 Z M 2.53125 -0.5625 "/></g></g></g><g fill="#ffffff" fill-opacity="1"><g transform="translate(161.658082, 325.975402)"><g><path d="M 11.25 -22.875 C 11.226562 -22.789062 11.191406 -22.734375 11.140625 -22.703125 C 11.128906 -22.648438 11.0625 -22.5625 10.9375 -22.4375 L 11.28125 -22.328125 C 11.40625 -22.335938 11.546875 -22.34375 11.703125 -22.34375 C 11.816406 -22.363281 11.898438 -22.363281 11.953125 -22.34375 L 12.015625 -22.375 L 12.125 -22.34375 C 12.300781 -22.351562 12.445312 -22.335938 12.5625 -22.296875 C 12.6875 -22.296875 12.847656 -22.265625 13.046875 -22.203125 C 13.179688 -22.210938 13.375 -22.175781 13.625 -22.09375 L 14.234375 -21.890625 C 14.304688 -21.890625 14.429688 -21.859375 14.609375 -21.796875 C 14.796875 -21.742188 14.921875 -21.691406 14.984375 -21.640625 L 23.0625 -19 L 1.515625 0.5 L 19.0625 6.234375 C 19.082031 6.179688 19.109375 6.144531 19.140625 6.125 L 19.1875 6.03125 C 19.226562 5.957031 19.265625 5.875 19.296875 5.78125 C 19.453125 5.570312 19.554688 5.394531 19.609375 5.25 C 19.660156 5.175781 19.703125 5.085938 19.734375 4.984375 C 19.742188 4.941406 19.769531 4.898438 19.8125 4.859375 L 19.84375 4.734375 L 19.78125 4.703125 C 19.738281 4.671875 19.628906 4.625 19.453125 4.5625 L 19.375 4.546875 C 19.125 4.648438 18.800781 4.6875 18.40625 4.65625 C 18.007812 4.625 17.660156 4.585938 17.359375 4.546875 L 16.875 4.375 C 16.71875 4.332031 16.539062 4.289062 16.34375 4.25 L 6.59375 1.0625 L 28.125 -18.390625 L 11.828125 -23.71875 C 11.804688 -23.644531 11.753906 -23.582031 11.671875 -23.53125 C 11.640625 -23.425781 11.582031 -23.359375 11.5 -23.328125 C 11.46875 -23.234375 11.382812 -23.082031 11.25 -22.875 Z M 11.25 -22.875 "/></g></g></g><g fill="#ffffff" fill-opacity="1"><g transform="translate(190.608718, 334.455415)"><g><path d="M 5.171875 -24.96875 C 5.160156 -24.882812 5.140625 -24.816406 5.109375 -24.765625 C 5.109375 -24.710938 5.066406 -24.609375 4.984375 -24.453125 L 5.34375 -24.4375 C 5.4375 -24.476562 5.5625 -24.519531 5.71875 -24.5625 C 5.832031 -24.613281 5.914062 -24.632812 5.96875 -24.625 L 6.015625 -24.671875 L 6.125 -24.671875 C 6.289062 -24.734375 6.4375 -24.757812 6.5625 -24.75 C 6.6875 -24.769531 6.851562 -24.773438 7.0625 -24.765625 C 7.195312 -24.804688 7.394531 -24.816406 7.65625 -24.796875 L 8.296875 -24.765625 C 8.367188 -24.773438 8.5 -24.773438 8.6875 -24.765625 C 8.875 -24.753906 9.007812 -24.738281 9.09375 -24.71875 L 17.578125 -24.171875 L 1.59375 0.09375 L 20.015625 1.265625 C 20.015625 1.210938 20.035156 1.171875 20.078125 1.140625 L 20.078125 1.03125 C 20.097656 0.945312 20.113281 0.851562 20.125 0.75 C 20.226562 0.519531 20.28125 0.328125 20.28125 0.171875 C 20.3125 0.0859375 20.332031 -0.00390625 20.34375 -0.109375 C 20.34375 -0.160156 20.359375 -0.210938 20.390625 -0.265625 L 20.40625 -0.390625 L 20.328125 -0.390625 C 20.273438 -0.421875 20.15625 -0.441406 19.96875 -0.453125 L 19.890625 -0.453125 C 19.679688 -0.285156 19.378906 -0.164062 18.984375 -0.09375 C 18.597656 -0.03125 18.253906 0.015625 17.953125 0.046875 L 17.4375 0.015625 C 17.28125 0.00390625 17.09375 0.0078125 16.875 0.03125 L 6.640625 -0.609375 L 22.625 -24.84375 L 5.515625 -25.921875 C 5.503906 -25.847656 5.472656 -25.773438 5.421875 -25.703125 C 5.410156 -25.597656 5.375 -25.519531 5.3125 -25.46875 C 5.300781 -25.363281 5.253906 -25.195312 5.171875 -24.96875 Z M 5.171875 -24.96875 "/></g></g></g><g fill="#ffffff" fill-opacity="1"><g transform="translate(220.768402, 335.420916)"><g><path d="M 0.796875 -2.015625 C 0.765625 -1.972656 0.75 -1.9375 0.75 -1.90625 C 0.757812 -1.882812 0.757812 -1.863281 0.75 -1.84375 C 0.726562 -1.78125 0.710938 -1.707031 0.703125 -1.625 C 0.691406 -1.539062 0.675781 -1.472656 0.65625 -1.421875 L 0.59375 -1.171875 C 0.550781 -1.054688 0.535156 -0.972656 0.546875 -0.921875 C 0.492188 -0.640625 0.40625 -0.484375 0.28125 -0.453125 L 0.203125 -0.4375 L 0.28125 -0.046875 L 2.21875 -0.421875 L 2.140625 -0.8125 L 2.09375 -0.8125 C 2.050781 -0.800781 2.007812 -0.910156 1.96875 -1.140625 C 2.007812 -1.285156 2.019531 -1.476562 2 -1.71875 L 2.03125 -2.203125 C 2.03125 -2.234375 2.039062 -2.269531 2.0625 -2.3125 L 2.0625 -2.46875 L 2.046875 -2.546875 L 3.140625 -10.078125 L 12.125 -11.796875 L 15.75 -6.078125 C 15.925781 -5.867188 16.070312 -5.664062 16.1875 -5.46875 C 16.300781 -5.28125 16.398438 -5.097656 16.484375 -4.921875 C 16.703125 -4.660156 16.847656 -4.414062 16.921875 -4.1875 L 16.953125 -4.15625 C 16.960938 -4.125 16.988281 -4.085938 17.03125 -4.046875 L 17.03125 -4.015625 C 17.101562 -3.921875 17.144531 -3.847656 17.15625 -3.796875 C 17.164062 -3.742188 17.144531 -3.710938 17.09375 -3.703125 L 17.046875 -3.6875 L 17.125 -3.296875 L 21.921875 -4.234375 L 21.84375 -4.625 L 21.765625 -4.609375 C 21.628906 -4.578125 21.460938 -4.6875 21.265625 -4.9375 L 21.25 -4.984375 L 21.21875 -5.015625 L 21.203125 -5.140625 L 21.078125 -5.28125 C 21.046875 -5.300781 21 -5.34375 20.9375 -5.40625 L 20.828125 -5.5625 C 20.796875 -5.550781 20.765625 -5.570312 20.734375 -5.625 L 20.71875 -5.65625 C 20.664062 -5.75 20.628906 -5.796875 20.609375 -5.796875 C 20.523438 -5.898438 20.46875 -5.984375 20.4375 -6.046875 C 20.375 -6.128906 20.320312 -6.210938 20.28125 -6.296875 L 5.765625 -28.4375 L 4.78125 -28.25 L 0.828125 -2.265625 C 0.796875 -2.148438 0.785156 -2.066406 0.796875 -2.015625 Z M 5 -23.015625 L 11.546875 -12.71875 L 3.28125 -11.125 Z M 5 -23.015625 "/></g></g></g><g fill="#ffffff" fill-opacity="1"><g transform="translate(249.392668, 328.616771)"><g/></g></g><g fill="#ffffff" fill-opacity="1"><g transform="translate(264.05541, 322.347856)"><g><path d="M 4.96875 -5.828125 C 5.320312 -5.210938 5.46875 -4.6875 5.40625 -4.25 C 5.34375 -3.8125 5.019531 -3.414062 4.4375 -3.0625 C 3.90625 -2.75 3.445312 -2.613281 3.0625 -2.65625 C 2.6875 -2.757812 2.289062 -3.003906 1.875 -3.390625 C 1.5 -3.878906 1.125 -4.140625 0.75 -4.171875 C 0.46875 -4.253906 0.0546875 -4.132812 -0.484375 -3.8125 C -0.804688 -3.625 -1.09375 -3.40625 -1.34375 -3.15625 C -1.601562 -2.914062 -1.617188 -2.601562 -1.390625 -2.21875 C -1.160156 -1.832031 -0.8125 -1.5 -0.34375 -1.21875 C 0.125 -0.9375 0.59375 -0.789062 1.0625 -0.78125 C 1.46875 -0.820312 1.921875 -0.9375 2.421875 -1.125 C 2.929688 -1.3125 3.550781 -1.625 4.28125 -2.0625 C 5.675781 -2.875 6.660156 -3.664062 7.234375 -4.4375 C 7.816406 -5.21875 8.113281 -6.007812 8.125 -6.8125 C 8.144531 -7.613281 7.9375 -8.460938 7.5 -9.359375 C 7.0625 -10.253906 6.519531 -11.25 5.875 -12.34375 L -2.015625 -25.78125 L -2.234375 -26.15625 C -2.296875 -26.257812 -2.347656 -26.378906 -2.390625 -26.515625 L -3.015625 -27.59375 C -3.179688 -27.894531 -3.203125 -28.078125 -3.078125 -28.140625 L -3.046875 -28.171875 C -3.023438 -28.179688 -3.019531 -28.195312 -3.03125 -28.21875 C -3.019531 -28.300781 -3.054688 -28.34375 -3.140625 -28.34375 C -3.148438 -28.40625 -3.164062 -28.457031 -3.1875 -28.5 C -3.195312 -28.519531 -3.210938 -28.523438 -3.234375 -28.515625 L -7.171875 -26.203125 L -6.984375 -25.859375 L -6.953125 -25.875 C -6.816406 -25.957031 -6.648438 -25.835938 -6.453125 -25.515625 C -6.359375 -25.441406 -6.273438 -25.335938 -6.203125 -25.203125 L -6.125 -25.078125 L 3.53125 -8.578125 L 4.015625 -7.765625 C 4.148438 -7.523438 4.265625 -7.265625 4.359375 -6.984375 C 4.484375 -6.785156 4.59375 -6.59375 4.6875 -6.40625 C 4.789062 -6.21875 4.882812 -6.023438 4.96875 -5.828125 Z M 4.96875 -5.828125 "/></g></g></g><g fill="#ffffff" fill-opacity="1"><g transform="translate(281.241066, 311.998864)"><g><path d="M -0.375 -2.125 C -0.382812 -2.082031 -0.378906 -2.050781 -0.359375 -2.03125 C -0.335938 -2.007812 -0.328125 -1.988281 -0.328125 -1.96875 C -0.316406 -1.90625 -0.289062 -1.832031 -0.25 -1.75 C -0.21875 -1.675781 -0.195312 -1.609375 -0.1875 -1.546875 L -0.109375 -1.296875 C -0.078125 -1.179688 -0.0390625 -1.109375 0 -1.078125 C 0.101562 -0.796875 0.101562 -0.613281 0 -0.53125 L -0.0625 -0.46875 L 0.203125 -0.1875 L 1.671875 -1.53125 L 1.40625 -1.8125 L 1.375 -1.78125 C 1.332031 -1.738281 1.234375 -1.804688 1.078125 -1.984375 C 1.046875 -2.148438 0.957031 -2.328125 0.8125 -2.515625 L 0.578125 -2.953125 C 0.554688 -2.972656 0.550781 -3.007812 0.5625 -3.0625 L 0.421875 -3.25 L -2.578125 -10.234375 L 4.171875 -16.390625 L 10.25 -13.40625 C 10.519531 -13.320312 10.753906 -13.226562 10.953125 -13.125 C 11.148438 -13.019531 11.332031 -12.910156 11.5 -12.796875 C 11.800781 -12.691406 12.050781 -12.5625 12.25 -12.40625 L 12.28125 -12.40625 C 12.300781 -12.382812 12.34375 -12.363281 12.40625 -12.34375 L 12.421875 -12.328125 C 12.535156 -12.285156 12.609375 -12.238281 12.640625 -12.1875 C 12.679688 -12.144531 12.679688 -12.109375 12.640625 -12.078125 L 12.609375 -12.046875 L 12.875 -11.765625 L 16.484375 -15.0625 L 16.21875 -15.34375 L 16.171875 -15.28125 C 16.066406 -15.1875 15.859375 -15.195312 15.546875 -15.3125 L 15.515625 -15.34375 L 15.46875 -15.359375 L 15.375 -15.453125 L 15.21875 -15.5 C 15.175781 -15.507812 15.113281 -15.523438 15.03125 -15.546875 L 14.859375 -15.625 C 14.835938 -15.601562 14.796875 -15.597656 14.734375 -15.609375 L 14.71875 -15.640625 C 14.625 -15.691406 14.570312 -15.710938 14.5625 -15.703125 C 14.4375 -15.742188 14.34375 -15.785156 14.28125 -15.828125 C 14.164062 -15.867188 14.070312 -15.910156 14 -15.953125 L -9.9375 -27.265625 L -10.671875 -26.59375 L -0.484375 -2.34375 C -0.441406 -2.238281 -0.40625 -2.164062 -0.375 -2.125 Z M -7.765625 -22.234375 L 3.21875 -16.875 L -3 -11.203125 Z M -7.765625 -22.234375 "/></g></g></g><g fill="#ffffff" fill-opacity="1"><g transform="translate(302.924875, 290.886605)"><g><path d="M 0.265625 -2.0625 C 0.554688 -1.875 0.664062 -1.726562 0.59375 -1.625 L 0.546875 -1.546875 L 0.875 -1.328125 L 6.375 -9.75 C 7.175781 -10.976562 7.851562 -12.132812 8.40625 -13.21875 C 8.957031 -14.3125 9.269531 -15.351562 9.34375 -16.34375 C 9.425781 -17.332031 9.21875 -18.273438 8.71875 -19.171875 C 8.21875 -20.066406 7.3125 -20.941406 6 -21.796875 C 5.613281 -22.046875 5.207031 -22.289062 4.78125 -22.53125 C 4.351562 -22.769531 3.90625 -22.96875 3.4375 -23.125 C 2.976562 -23.28125 2.523438 -23.390625 2.078125 -23.453125 C 1.628906 -23.523438 1.210938 -23.519531 0.828125 -23.4375 C 0.378906 -23.375 -0.0625 -23.222656 -0.5 -22.984375 C -0.9375 -22.742188 -1.351562 -22.460938 -1.75 -22.140625 C -2.15625 -21.816406 -2.523438 -21.46875 -2.859375 -21.09375 C -3.203125 -20.71875 -3.503906 -20.363281 -3.765625 -20.03125 C -3.453125 -20.894531 -3.25 -21.65625 -3.15625 -22.3125 C -3.070312 -22.976562 -3.132812 -23.585938 -3.34375 -24.140625 C -3.550781 -24.703125 -3.894531 -25.226562 -4.375 -25.71875 C -4.863281 -26.207031 -5.5 -26.703125 -6.28125 -27.203125 C -7.375 -27.921875 -8.269531 -28.335938 -8.96875 -28.453125 C -9.769531 -28.691406 -10.550781 -28.644531 -11.3125 -28.3125 C -12 -28.070312 -12.765625 -27.503906 -13.609375 -26.609375 C -14.046875 -26.222656 -14.453125 -25.742188 -14.828125 -25.171875 C -15.023438 -24.890625 -15.226562 -24.59375 -15.4375 -24.28125 L -16.109375 -23.265625 L -21.0625 -15.671875 L -20.75 -15.453125 L -20.703125 -15.53125 C -20.617188 -15.65625 -20.414062 -15.617188 -20.09375 -15.421875 C -19.945312 -15.421875 -19.734375 -15.300781 -19.453125 -15.0625 L -0.359375 -2.578125 L 0 -2.328125 C 0.09375 -2.273438 0.179688 -2.1875 0.265625 -2.0625 Z M -6.203125 -15.21875 L -5.578125 -16.171875 C -5.367188 -16.484375 -5.125 -16.816406 -4.84375 -17.171875 C -4.6875 -17.328125 -4.523438 -17.503906 -4.359375 -17.703125 C -4.203125 -17.910156 -4.015625 -18.109375 -3.796875 -18.296875 C -3.171875 -18.960938 -2.488281 -19.460938 -1.75 -19.796875 C -1.007812 -20.140625 -0.175781 -20.164062 0.75 -19.875 C 1.132812 -19.78125 1.539062 -19.628906 1.96875 -19.421875 C 2.40625 -19.210938 2.847656 -18.96875 3.296875 -18.6875 L 3.828125 -18.328125 C 3.878906 -18.265625 3.941406 -18.210938 4.015625 -18.171875 L 4.25 -18.015625 C 4.351562 -17.910156 4.460938 -17.820312 4.578125 -17.75 L 4.96875 -17.484375 L 5.109375 -17.40625 L 5.15625 -17.328125 C 5.25 -17.234375 5.351562 -17.128906 5.46875 -17.015625 C 5.59375 -16.910156 5.71875 -16.785156 5.84375 -16.640625 C 6.34375 -16.085938 6.664062 -15.523438 6.8125 -14.953125 C 6.957031 -14.390625 6.972656 -13.828125 6.859375 -13.265625 C 6.742188 -12.703125 6.539062 -12.144531 6.25 -11.59375 C 5.96875 -11.039062 5.65625 -10.5 5.3125 -9.96875 L 2.359375 -5.4375 L -8.109375 -12.28125 Z M -15.296875 -22.734375 C -14.734375 -23.597656 -14.195312 -24.234375 -13.6875 -24.640625 C -13.1875 -25.046875 -12.664062 -25.28125 -12.125 -25.34375 C -11.59375 -25.414062 -11.019531 -25.320312 -10.40625 -25.0625 C -9.800781 -24.800781 -9.113281 -24.421875 -8.34375 -23.921875 C -7.40625 -23.304688 -6.6875 -22.71875 -6.1875 -22.15625 C -5.695312 -21.59375 -5.394531 -20.992188 -5.28125 -20.359375 C -5.164062 -19.734375 -5.226562 -19.0625 -5.46875 -18.34375 C -5.707031 -17.632812 -6.117188 -16.835938 -6.703125 -15.953125 L -8.796875 -12.734375 L -17.921875 -18.703125 Z M -15.296875 -22.734375 "/></g></g></g><g fill="#ffffff" fill-opacity="1"><g transform="translate(318.213843, 265.640712)"><g><path d="M -0.234375 -2.078125 C 0.0859375 -1.953125 0.222656 -1.8125 0.171875 -1.65625 L 0.15625 -1.625 L 0.53125 -1.5 L 5.96875 -16.6875 C 5.914062 -16.707031 5.878906 -16.738281 5.859375 -16.78125 L 5.84375 -16.78125 C 5.800781 -16.84375 5.773438 -16.851562 5.765625 -16.8125 C 5.710938 -16.851562 5.632812 -16.890625 5.53125 -16.921875 C 5.34375 -17.078125 5.1875 -17.175781 5.0625 -17.21875 C 5.019531 -17.257812 4.9375 -17.300781 4.8125 -17.34375 C 4.726562 -17.375 4.679688 -17.410156 4.671875 -17.453125 L 4.5625 -17.484375 L 4.453125 -17.1875 C 4.484375 -16.78125 4.46875 -16.378906 4.40625 -15.984375 C 4.34375 -15.585938 4.269531 -15.191406 4.1875 -14.796875 L 3.984375 -14.21875 C 3.921875 -14.019531 3.847656 -13.785156 3.765625 -13.515625 L 1.03125 -5.84375 L -10.765625 -10.046875 L -8.578125 -16.1875 L -8.359375 -16.78125 C -8.304688 -16.9375 -8.234375 -17.066406 -8.140625 -17.171875 C -7.867188 -17.710938 -7.65625 -18.03125 -7.5 -18.125 L -7.40625 -18.203125 L -7.296875 -18.515625 L -8.921875 -19.09375 L -9.03125 -18.78125 C -9.039062 -18.5625 -9.039062 -18.382812 -9.03125 -18.25 L -9.078125 -18.15625 C -9.066406 -18.113281 -9.078125 -18.050781 -9.109375 -17.96875 L -9.171875 -17.796875 C -9.179688 -17.742188 -9.191406 -17.675781 -9.203125 -17.59375 C -9.265625 -17.414062 -9.304688 -17.257812 -9.328125 -17.125 L -9.421875 -16.875 C -9.453125 -16.789062 -9.472656 -16.679688 -9.484375 -16.546875 L -9.59375 -16.25 C -9.632812 -16.125 -9.671875 -15.988281 -9.703125 -15.84375 L -11.65625 -10.375 L -21.796875 -13.984375 L -19.28125 -21.015625 L -19.109375 -21.5 C -19.066406 -21.632812 -19.007812 -21.753906 -18.9375 -21.859375 L -18.671875 -22.578125 C -18.578125 -22.847656 -18.484375 -23.039062 -18.390625 -23.15625 C -18.273438 -23.457031 -18.097656 -23.742188 -17.859375 -24.015625 L -17.640625 -24.328125 C -17.597656 -24.421875 -17.507812 -24.515625 -17.375 -24.609375 L -17.265625 -24.90625 L -18.75 -25.4375 L -24.15625 -10.328125 L -23.796875 -10.1875 L -23.78125 -10.21875 C -23.71875 -10.394531 -23.507812 -10.421875 -23.15625 -10.296875 C -23.03125 -10.316406 -22.894531 -10.300781 -22.75 -10.25 L -22.609375 -10.1875 L -0.953125 -2.421875 L -0.53125 -2.265625 C -0.4375 -2.234375 -0.335938 -2.171875 -0.234375 -2.078125 Z M -0.234375 -2.078125 "/></g></g></g><g fill="#ffffff" fill-opacity="1"><g transform="translate(326.385743, 240.450375)"><g><path d="M -0.6875 -1.96875 C -0.34375 -1.925781 -0.175781 -1.820312 -0.1875 -1.65625 L -0.203125 -1.625 L 0.1875 -1.578125 L 2.140625 -17.59375 C 2.085938 -17.601562 2.046875 -17.625 2.015625 -17.65625 L 1.984375 -17.65625 C 1.941406 -17.71875 1.914062 -17.722656 1.90625 -17.671875 C 1.851562 -17.691406 1.769531 -17.710938 1.65625 -17.734375 C 1.4375 -17.835938 1.257812 -17.898438 1.125 -17.921875 C 1.09375 -17.953125 1.007812 -17.972656 0.875 -17.984375 C 0.789062 -17.992188 0.738281 -18.015625 0.71875 -18.046875 L 0.59375 -18.0625 L 0.546875 -17.75 C 0.671875 -17.351562 0.75 -16.957031 0.78125 -16.5625 C 0.8125 -16.164062 0.820312 -15.765625 0.8125 -15.359375 L 0.75 -14.75 C 0.71875 -14.539062 0.695312 -14.289062 0.6875 -14 L -0.296875 -5.921875 L -12.71875 -7.421875 L -11.9375 -13.890625 L -11.859375 -14.53125 C -11.835938 -14.6875 -11.789062 -14.832031 -11.71875 -14.96875 C -11.582031 -15.550781 -11.445312 -15.898438 -11.3125 -16.015625 L -11.25 -16.125 L -11.203125 -16.453125 L -12.90625 -16.65625 L -12.953125 -16.328125 C -12.910156 -16.117188 -12.875 -15.941406 -12.84375 -15.796875 L -12.859375 -15.6875 C -12.835938 -15.65625 -12.832031 -15.601562 -12.84375 -15.53125 L -12.875 -15.34375 C -12.875 -15.289062 -12.863281 -15.21875 -12.84375 -15.125 C -12.863281 -14.9375 -12.875 -14.78125 -12.875 -14.65625 L -12.90625 -14.375 C -12.914062 -14.289062 -12.910156 -14.179688 -12.890625 -14.046875 L -12.9375 -13.734375 C -12.945312 -13.597656 -12.953125 -13.457031 -12.953125 -13.3125 L -13.65625 -7.546875 L -24.34375 -8.84375 L -23.4375 -16.265625 L -23.375 -16.78125 C -23.363281 -16.90625 -23.332031 -17.023438 -23.28125 -17.140625 L -23.1875 -17.90625 C -23.15625 -18.195312 -23.109375 -18.40625 -23.046875 -18.53125 C -23.003906 -18.84375 -22.894531 -19.160156 -22.71875 -19.484375 L -22.5625 -19.828125 C -22.550781 -19.929688 -22.484375 -20.046875 -22.359375 -20.171875 L -22.328125 -20.484375 L -23.90625 -20.671875 L -25.84375 -4.734375 L -25.453125 -4.6875 L -25.4375 -4.71875 C -25.414062 -4.90625 -25.21875 -4.976562 -24.84375 -4.9375 C -24.738281 -4.976562 -24.609375 -4.988281 -24.453125 -4.96875 L -24.296875 -4.953125 L -1.453125 -2.140625 L -1.015625 -2.09375 C -0.910156 -2.082031 -0.800781 -2.039062 -0.6875 -1.96875 Z M -0.6875 -1.96875 "/></g></g></g><g fill="#ffffff" fill-opacity="1"><g transform="translate(328.941087, 213.860401)"><g><path d="M -0.796875 -3.359375 L -0.78125 -3.3125 C -0.769531 -3.238281 -0.945312 -3.140625 -1.3125 -3.015625 L -1.578125 -2.984375 C -1.710938 -2.929688 -1.988281 -2.882812 -2.40625 -2.84375 L -22.96875 -0.421875 L -1.53125 -19.859375 L -1.671875 -21.125 L -25.5625 -18.328125 L -26 -18.265625 C -26.125 -18.253906 -26.25 -18.253906 -26.375 -18.265625 L -26.859375 -18.21875 C -27.046875 -18.21875 -27.207031 -18.207031 -27.34375 -18.1875 L -27.625 -18.15625 C -27.96875 -18.195312 -28.144531 -18.257812 -28.15625 -18.34375 L -28.171875 -18.375 L -28.5625 -18.328125 L -28.34375 -16.46875 L -27.953125 -16.515625 L -27.953125 -16.546875 C -27.972656 -16.734375 -27.796875 -16.847656 -27.421875 -16.890625 C -27.328125 -16.960938 -27.203125 -17.003906 -27.046875 -17.015625 L -26.890625 -17.046875 L -7.9375 -19.234375 L -26.671875 -2.3125 L -26.234375 1.484375 L -25.84375 1.4375 L -25.84375 1.40625 C -25.863281 1.238281 -25.6875 1.132812 -25.3125 1.09375 C -25.21875 1.019531 -25.09375 0.976562 -24.9375 0.96875 L -24.78125 0.9375 L -1.90625 -1.6875 L -1.46875 -1.75 C -1.375 -1.757812 -1.257812 -1.742188 -1.125 -1.703125 C -0.78125 -1.742188 -0.597656 -1.695312 -0.578125 -1.5625 L -0.578125 -1.53125 L -0.1875 -1.578125 L -0.40625 -3.40625 Z M -0.796875 -3.359375 "/></g></g></g></svg>